<?xml version="1.0" standalone="no"?>
<!DOCTYPE svg PUBLIC "-//W3C//DTD SVG 20010904//EN"
 "http://www.w3.org/TR/2001/REC-SVG-20010904/DTD/svg10.dtd">
<svg version="1.0" xmlns="http://www.w3.org/2000/svg"
 width="873.000000pt" height="831.000000pt" viewBox="0 0 873.000000 831.000000"
 preserveAspectRatio="xMidYMid meet">
<metadata>
Created by potrace 1.10, written by Peter Selinger 2001-2011
</metadata>
<g transform="translate(0.000000,831.000000) scale(0.100000,-0.100000)"
fill="#ffffff" stroke="none">
<path d="M4515 8023 c-4 -10 -10 -133 -12 -273 -5 -248 -6 -256 -29 -297 -16
-27 -32 -43 -44 -43 -10 0 -23 -6 -27 -14 -7 -13 -155 -171 -298 -321 -33 -34
-87 -93 -120 -130 -33 -37 -66 -74 -73 -81 -7 -8 -36 -42 -65 -76 -78 -94
-100 -119 -125 -142 -13 -11 -38 -43 -57 -71 -18 -27 -46 -63 -62 -80 -15 -16
-67 -79 -115 -140 -48 -60 -101 -127 -118 -147 -17 -20 -43 -54 -57 -75 -15
-21 -36 -52 -48 -70 -12 -17 -44 -60 -71 -95 -68 -87 -85 -111 -151 -207 -32
-46 -65 -93 -73 -105 -8 -11 -21 -27 -27 -34 -7 -7 -13 -19 -14 -25 0 -7 -16
-32 -35 -57 -18 -25 -38 -54 -43 -65 -5 -12 -16 -27 -25 -34 -9 -7 -16 -17
-16 -22 0 -5 -18 -35 -40 -66 -22 -32 -40 -63 -40 -69 0 -6 -9 -19 -20 -29
-11 -10 -20 -26 -20 -36 0 -10 -4 -21 -10 -24 -12 -7 -14 -75 -2 -75 9 0 81
90 102 128 50 88 208 324 312 462 27 36 70 94 96 129 26 35 64 83 85 106 20
23 37 46 37 50 0 4 12 22 28 40 15 18 38 47 52 65 14 18 36 47 51 64 14 17 43
56 65 86 57 79 353 434 371 443 8 5 22 21 31 36 9 15 39 47 67 71 l50 43 8
-44 c13 -74 20 -77 27 -13 6 53 12 66 46 100 21 22 46 43 56 47 11 4 19 24 25
59 8 50 10 53 38 53 l30 0 -1 -70 c0 -46 -6 -81 -18 -103 -13 -26 -15 -46 -10
-91 6 -53 4 -60 -14 -70 -11 -6 -39 -11 -61 -11 -50 0 -54 -17 -6 -26 52 -9
60 -25 46 -87 -13 -60 -20 -178 -13 -224 3 -24 10 -33 24 -33 23 0 35 27 47
110 5 36 14 85 20 110 6 25 10 68 11 95 0 28 9 76 20 108 11 31 20 76 20 100
0 41 10 84 30 132 5 11 11 48 13 83 3 34 10 69 16 76 6 7 15 39 20 72 5 32 20
87 33 122 19 51 27 62 43 60 17 -3 20 -12 23 -73 4 -90 -14 -409 -33 -595 -9
-80 -17 -207 -18 -282 -2 -75 -6 -141 -11 -145 -4 -4 -40 -11 -79 -15 -104 -9
-241 -43 -272 -67 -5 -5 -23 -11 -40 -15 -39 -9 -142 -56 -245 -111 -14 -8
-32 -16 -40 -20 -21 -8 -81 -44 -135 -82 -25 -18 -48 -33 -50 -33 -7 0 -76
-49 -119 -84 -142 -118 -339 -327 -432 -461 -57 -82 -84 -125 -95 -148 -5 -12
-21 -40 -34 -62 -35 -58 -85 -161 -85 -174 0 -6 -9 -28 -20 -48 -11 -21 -20
-45 -20 -54 0 -9 -9 -36 -20 -61 -24 -54 -44 -256 -35 -343 11 -100 59 -175
145 -230 l42 -26 -49 -53 c-74 -82 -111 -127 -145 -178 -17 -27 -36 -48 -42
-48 -41 0 -143 106 -188 195 -52 102 -70 219 -43 288 9 24 15 59 13 78 -3 32
-5 34 -46 37 -40 3 -43 2 -48 -27 -4 -16 -12 -32 -20 -35 -8 -3 -14 -14 -14
-24 0 -11 -9 -31 -20 -45 -11 -14 -20 -35 -20 -47 0 -30 -60 -120 -79 -120 -9
0 -24 -9 -34 -20 -9 -11 -22 -20 -29 -21 -7 0 -33 -16 -58 -35 -25 -18 -56
-39 -69 -44 -13 -6 -44 -24 -68 -40 -24 -17 -48 -30 -53 -30 -5 0 -21 -10 -37
-22 -37 -30 -61 -45 -99 -63 -17 -7 -36 -21 -44 -29 -16 -20 -39 -21 -46 -2
-6 14 49 100 101 158 17 18 46 54 65 79 19 25 65 79 101 120 37 41 110 124
164 184 53 61 129 141 167 179 87 86 89 109 11 114 -29 2 -59 -1 -66 -5 -12
-8 -181 -190 -223 -242 -10 -13 -24 -28 -30 -35 -25 -26 -224 -276 -224 -280
0 -6 -35 -58 -71 -106 -67 -88 -99 -171 -83 -214 8 -22 116 -23 134 -1 7 8 20
15 30 15 9 0 32 10 51 23 19 12 60 36 92 52 87 45 96 51 120 73 12 11 54 37
92 57 39 21 79 46 91 56 11 11 24 19 28 19 11 0 0 -60 -24 -135 -47 -150 -74
-364 -63 -498 7 -82 48 -157 85 -157 53 0 139 79 336 305 63 72 122 136 131
143 15 10 30 9 82 -4 104 -28 371 -19 469 14 25 8 63 18 85 22 22 4 72 20 110
35 39 15 92 35 118 45 27 10 53 22 60 29 6 6 16 11 22 11 11 0 111 49 145 70
8 6 26 15 40 20 14 6 43 21 65 35 22 13 50 29 62 34 20 9 191 136 203 150 3 3
24 19 48 35 24 16 55 43 70 60 50 57 93 87 107 76 9 -8 9 -25 -2 -82 -10 -50
-13 -114 -10 -203 3 -92 -1 -166 -13 -255 -10 -69 -21 -215 -24 -325 -3 -110
-13 -319 -21 -465 -24 -426 -33 -627 -55 -1115 -11 -253 -25 -482 -31 -510 -7
-27 -15 -106 -18 -175 l-6 -125 -35 2 c-19 1 -150 9 -290 17 -140 8 -338 21
-440 30 -102 8 -296 17 -433 21 -136 3 -284 10 -330 16 -45 5 -253 14 -462 19
-209 5 -411 14 -450 19 -38 5 -191 12 -340 15 -296 7 -547 23 -583 37 -30 12
-28 37 5 50 15 6 46 26 69 44 23 19 53 39 66 45 12 5 30 14 38 19 8 5 26 14
40 20 14 7 43 23 65 36 49 30 82 45 99 45 8 0 19 7 26 15 7 8 22 15 34 15 11
0 35 9 51 20 17 11 40 20 51 20 12 0 33 9 48 21 15 12 46 23 69 26 23 3 53 11
67 18 14 7 49 15 79 19 30 4 64 12 75 19 65 35 551 37 620 1 17 -9 56 -20 86
-24 30 -5 75 -14 100 -20 68 -18 211 -60 245 -72 17 -6 55 -16 85 -23 56 -14
76 -20 165 -50 28 -9 70 -23 95 -30 25 -7 62 -20 82 -29 21 -9 50 -16 65 -16
16 0 37 -6 48 -14 11 -7 38 -16 60 -20 21 -4 56 -16 77 -27 20 -10 45 -19 55
-19 11 0 36 -9 58 -20 22 -11 51 -20 65 -20 14 0 34 -7 44 -15 11 -8 30 -15
43 -15 13 0 41 -9 63 -20 22 -11 47 -20 57 -20 10 0 35 -9 56 -20 20 -11 50
-20 65 -20 16 0 37 -7 48 -15 21 -16 114 -21 114 -5 0 5 -9 14 -20 20 -11 6
-20 16 -20 23 0 7 -14 21 -30 31 -20 11 -33 29 -37 47 -3 16 -14 34 -24 40
-12 6 -19 21 -19 38 0 15 -8 36 -19 45 -10 9 -22 31 -25 49 -6 29 -7 30 -23
14 -15 -14 -15 -20 -5 -35 7 -9 15 -24 18 -32 3 -8 15 -32 26 -53 11 -21 17
-44 14 -52 -7 -19 -56 -20 -56 -1 0 8 -13 19 -30 25 -27 9 -30 14 -30 50 0 23
-4 41 -10 41 -5 0 -10 -15 -10 -32 0 -53 -12 -63 -56 -50 -107 31 -156 47
-389 131 -32 11 -68 21 -80 21 -11 0 -33 7 -49 15 -15 8 -35 15 -43 15 -8 0
-29 6 -46 13 -32 14 -195 66 -292 94 -27 8 -77 23 -110 34 -33 10 -69 19 -81
19 -11 0 -47 9 -78 20 -129 44 -378 82 -546 84 -108 1 -289 -17 -400 -40 -117
-25 -242 -63 -260 -79 -9 -8 -32 -15 -52 -15 -22 0 -41 -7 -53 -20 -10 -11
-26 -20 -35 -20 -10 0 -29 -9 -43 -20 -14 -11 -31 -20 -39 -20 -7 0 -25 -8
-38 -17 -49 -35 -94 -53 -104 -43 -14 14 8 56 41 76 15 10 36 26 46 36 10 10
30 18 45 18 l27 0 -21 18 c-27 22 -38 63 -35 130 5 105 -54 47 -139 -138 -21
-47 -52 -105 -59 -110 -3 -3 -19 -32 -35 -65 -16 -33 -35 -67 -42 -75 -7 -8
-26 -43 -44 -77 -17 -34 -35 -65 -40 -68 -6 -4 -10 -19 -10 -34 0 -21 8 -32
40 -50 22 -12 40 -30 41 -39 0 -9 13 -39 29 -67 16 -27 41 -72 55 -100 15 -27
34 -59 44 -70 9 -11 30 -40 46 -65 16 -25 53 -78 82 -117 29 -40 53 -76 53
-79 0 -4 21 -30 47 -59 27 -28 71 -78 98 -111 72 -85 225 -233 259 -251 29
-15 31 -15 53 13 39 49 77 84 91 84 7 0 20 9 29 20 10 11 24 20 31 20 8 0 25
9 39 20 14 11 38 20 53 20 15 0 33 7 40 15 7 8 26 15 42 15 16 0 39 7 52 16
13 8 46 20 73 27 38 9 49 17 51 34 3 20 -1 23 -35 23 -21 0 -57 -9 -79 -19
-23 -10 -55 -22 -72 -26 -17 -3 -36 -13 -43 -21 -6 -8 -22 -14 -34 -14 -12 0
-28 -7 -35 -15 -7 -8 -20 -15 -30 -15 -9 0 -30 -10 -45 -22 -25 -19 -28 -20
-37 -5 -5 10 -19 17 -32 17 -15 0 -34 13 -52 37 -16 21 -63 74 -106 118 -42
44 -89 98 -104 120 -28 41 -52 71 -92 110 -12 12 -22 27 -22 34 0 6 -25 37
-55 67 -30 31 -55 50 -55 41 0 -8 7 -20 15 -27 8 -7 15 -18 15 -25 0 -31 216
-296 341 -417 70 -68 77 -98 24 -98 -40 0 -41 0 -175 159 -11 13 -20 30 -20
38 0 7 -6 13 -13 13 -7 0 -33 23 -58 52 -24 28 -51 59 -59 67 -9 9 -31 39 -50
66 -19 28 -41 54 -47 58 -7 4 -13 12 -13 16 0 5 -18 28 -40 52 -22 24 -40 49
-40 55 0 6 -11 24 -25 40 -14 16 -36 43 -50 59 -14 17 -41 49 -61 72 -42 49
-37 67 15 60 135 -20 221 -25 406 -26 116 -1 228 -6 250 -11 22 -5 76 -10 120
-10 44 0 110 -5 146 -10 37 -5 190 -12 342 -15 201 -4 283 -9 308 -19 26 -10
109 -14 359 -15 229 -2 355 -7 425 -17 119 -18 177 -21 566 -29 163 -3 311
-10 330 -16 19 -6 142 -14 274 -19 424 -16 540 -22 557 -31 9 -5 131 -9 270
-10 139 0 276 -5 303 -10 63 -12 359 -26 654 -30 182 -3 236 -7 277 -21 44
-15 104 -17 456 -21 268 -2 411 -7 420 -14 25 -21 76 -25 110 -9 18 8 47 17
65 21 41 8 51 34 23 57 -26 21 -43 22 -70 6 -15 -10 -27 -9 -57 2 -30 12 -96
15 -319 15 -263 0 -283 1 -303 19 -12 11 -21 31 -21 48 0 27 30 68 50 68 7 0
7 8 -1 22 -19 36 -5 125 25 153 16 15 26 35 26 52 0 16 9 45 20 66 11 20 20
46 20 57 0 22 34 44 56 36 8 -3 14 -12 14 -21 0 -8 5 -15 11 -15 7 0 9 9 5 24
-9 34 23 69 79 85 42 12 65 12 184 -2 110 -14 142 -22 173 -42 53 -35 47 -45
-14 -24 -29 10 -66 18 -82 19 -16 0 -38 8 -48 17 -16 14 -36 17 -110 15 -50
-1 -94 -4 -97 -7 -3 -3 0 -14 5 -23 8 -12 31 -19 80 -23 38 -3 83 -13 99 -22
17 -10 43 -17 59 -17 16 0 43 -9 60 -19 17 -10 46 -22 64 -26 23 -5 32 -12 32
-26 0 -11 -7 -22 -15 -25 -10 -4 -12 -15 -8 -35 8 -42 -12 -61 -61 -57 -53 4
-55 -18 -4 -51 32 -21 36 -27 31 -53 -7 -33 22 -69 95 -120 73 -50 96 -144 47
-189 -33 -32 -40 -75 -21 -137 8 -28 18 -82 21 -119 6 -66 3 -116 -30 -422
-10 -87 -12 -148 -7 -153 5 -5 22 -8 38 -6 28 3 29 5 31 63 2 33 12 148 23
255 11 107 22 260 25 340 3 80 9 186 14 235 9 84 8 93 -13 134 -27 52 -74 75
-137 65 l-39 -7 0 51 c0 36 5 54 16 60 9 5 18 28 21 53 3 24 12 57 21 73 21
42 33 155 20 180 -21 39 -42 51 -112 64 -72 12 -230 33 -276 36 -14 1 -36 8
-49 15 -36 20 -143 -9 -189 -52 -29 -27 -82 -121 -82 -146 0 -10 -7 -24 -14
-31 -8 -6 -20 -28 -26 -48 -6 -20 -17 -50 -25 -67 -26 -59 -39 -121 -40 -195
-1 -41 -3 -81 -3 -88 -2 -9 -16 -12 -49 -10 l-48 3 -3 40 c-2 22 -8 44 -13 49
-5 6 -9 24 -9 41 0 21 -8 39 -25 53 -14 12 -25 30 -25 40 0 11 -9 27 -20 37
-11 10 -20 29 -20 42 0 13 -7 26 -15 29 -8 4 -15 16 -15 29 0 12 -9 32 -20 45
-11 13 -23 35 -27 49 -3 14 -11 33 -18 41 -8 8 -16 32 -20 52 -4 21 -13 42
-21 49 -8 6 -14 17 -14 24 0 7 -18 47 -40 90 -22 43 -40 83 -40 89 0 6 -6 23
-14 37 -7 14 -16 42 -20 61 -4 20 -13 39 -21 42 -8 3 -15 17 -15 31 0 34 -17
65 -35 65 -10 0 -15 11 -15 33 0 21 -8 41 -20 52 -11 10 -20 31 -20 47 0 16
-6 31 -15 34 -8 3 -19 23 -25 44 -6 21 -17 43 -25 50 -8 7 -15 24 -15 39 0 14
-9 43 -20 64 -11 20 -20 45 -20 55 0 9 -9 23 -20 30 -11 7 -20 23 -20 36 0 13
-8 34 -19 47 -10 13 -22 40 -26 59 -4 19 -14 44 -21 55 -8 11 -14 32 -14 48 0
16 -9 40 -20 54 -11 14 -20 36 -20 49 0 12 -8 29 -18 36 -11 7 -22 31 -26 52
-4 21 -14 45 -22 53 -8 8 -14 26 -14 41 0 15 -9 41 -20 57 -11 17 -20 42 -20
56 0 15 -9 38 -20 52 -11 14 -20 36 -20 50 0 13 -9 36 -20 50 -11 14 -20 39
-20 56 0 18 -9 40 -20 51 -11 11 -20 28 -20 38 0 10 -6 27 -14 38 -8 11 -19
46 -25 79 -6 32 -18 66 -26 75 -8 9 -15 32 -15 52 0 24 -8 42 -25 58 -17 16
-23 30 -19 45 4 16 -2 28 -20 43 -30 23 -34 60 -8 68 9 3 24 10 32 15 8 5 26
14 39 19 13 6 45 28 71 50 26 22 53 40 59 40 5 0 15 9 21 20 6 11 15 20 21 20
23 0 18 -32 -13 -77 -75 -107 -89 -137 -77 -171 11 -33 20 -37 79 -32 34 2 52
9 115 43 32 17 60 31 85 42 8 3 33 17 55 30 22 14 52 30 68 36 15 6 27 15 27
20 0 5 17 18 38 29 20 11 51 29 67 40 17 11 41 24 54 30 13 6 45 28 71 50 26
22 50 40 54 40 3 0 29 18 58 40 47 35 88 51 88 34 0 -14 -191 -225 -323 -357
-42 -42 -57 -64 -55 -80 2 -18 9 -22 36 -20 54 2 91 23 128 72 65 84 238 266
317 331 42 36 85 73 94 83 10 9 22 17 28 17 6 0 28 15 48 34 20 18 54 46 74
62 21 16 53 43 72 61 36 35 61 42 61 19 0 -7 -15 -47 -34 -87 -18 -41 -37 -89
-41 -107 -3 -18 -14 -46 -22 -63 -21 -42 -23 -137 -3 -149 25 -16 126 -12 140
5 7 8 18 15 25 15 8 0 26 10 42 23 15 13 35 27 43 31 8 4 33 18 55 31 22 14
49 29 60 34 11 5 36 23 54 40 28 26 31 34 21 46 -19 23 -46 18 -100 -20 -27
-19 -54 -35 -58 -35 -5 0 -17 -10 -28 -21 -10 -12 -28 -26 -39 -31 -11 -5 -38
-20 -60 -33 -101 -59 -111 -22 -43 150 56 142 87 207 112 233 11 13 54 40 94
60 73 37 92 61 78 97 -11 29 -45 18 -195 -65 -15 -8 -47 -30 -71 -48 -25 -18
-68 -50 -96 -70 -52 -38 -184 -152 -213 -184 -35 -40 -43 -4 -9 45 11 18 34
46 49 62 32 34 119 162 119 175 0 4 -11 15 -25 24 -41 27 -69 12 -119 -66 -25
-39 -46 -74 -46 -78 0 -14 -174 -172 -205 -187 -16 -7 -43 -22 -60 -32 -16
-11 -59 -34 -94 -52 -35 -19 -69 -38 -75 -44 -19 -16 -75 -55 -81 -55 -3 0
-31 -18 -63 -39 -32 -22 -70 -45 -85 -50 -15 -6 -27 -15 -27 -21 0 -5 -6 -10
-14 -10 -8 0 -28 -11 -44 -25 -17 -14 -34 -25 -39 -25 -6 0 -18 -9 -28 -20
-10 -11 -26 -20 -35 -20 -9 0 -25 -9 -35 -20 -21 -23 -38 -25 -53 -7 -11 13
53 105 154 223 28 32 83 96 122 141 100 118 204 232 305 335 109 110 113 131
25 136 -67 3 -25 41 -312 -278 -18 -20 -52 -63 -76 -95 -24 -33 -53 -69 -64
-80 -12 -11 -30 -31 -41 -45 -29 -35 -80 -70 -104 -70 -11 0 -24 -6 -28 -14
-8 -14 -102 -69 -170 -101 -17 -8 -34 -19 -38 -25 -3 -5 -19 -10 -36 -10 -28
0 -29 1 -29 49 0 33 -6 56 -20 73 -11 14 -24 37 -30 52 -5 14 -14 26 -19 26
-17 0 -22 -50 -6 -80 8 -16 15 -43 15 -60 0 -17 9 -39 20 -50 11 -11 20 -26
20 -34 0 -15 -92 -66 -119 -66 -9 0 -25 -6 -36 -14 -56 -38 -122 -25 -110 22
9 39 47 134 61 152 6 8 14 23 18 34 26 74 298 361 421 445 134 92 231 131 250
101 9 -15 -55 -99 -115 -149 -39 -33 -56 -42 -75 -37 -28 7 -65 -32 -65 -69 0
-33 34 -59 65 -51 29 7 235 206 235 226 0 6 8 28 17 47 15 32 15 39 2 61 -18
32 -60 44 -123 36 -71 -9 -212 -73 -286 -130 -25 -18 -55 -38 -68 -44 -13 -5
-53 -39 -90 -75 -62 -61 -92 -79 -92 -55 0 6 -4 10 -10 10 -5 0 -10 -13 -10
-28 0 -26 -27 -73 -78 -133 -42 -51 -106 -109 -119 -109 -8 0 -26 -9 -40 -20
-14 -11 -31 -20 -38 -20 -7 0 -19 -7 -26 -16 -7 -9 -22 -20 -34 -26 -11 -5
-38 -20 -60 -33 -22 -13 -59 -33 -81 -43 -23 -11 -45 -25 -48 -31 -4 -6 -16
-11 -27 -11 -11 0 -33 -10 -49 -21 -47 -36 -63 -21 -55 53 8 72 -7 130 -28
109 -7 -7 -13 -47 -14 -103 -1 -50 -5 -94 -10 -98 -4 -5 -26 -13 -48 -19 -31
-8 -44 -8 -62 4 -27 18 -28 25 -8 85 22 63 45 109 79 153 24 32 33 37 56 32
36 -8 63 21 38 39 -29 21 -10 57 76 142 123 123 270 237 377 294 15 8 34 24
42 34 9 13 20 16 35 12 39 -13 27 -50 -35 -113 -59 -59 -257 -218 -309 -247
-16 -9 -41 -24 -55 -34 -69 -46 -95 -62 -101 -62 -5 0 -8 -7 -8 -15 0 -11 11
-15 39 -15 22 0 43 4 46 10 3 5 25 19 48 30 23 11 60 31 82 45 22 13 47 27 55
31 43 21 219 142 247 170 18 18 42 36 54 39 11 4 27 21 35 38 8 18 24 44 36
59 18 23 20 33 12 55 -7 22 -22 32 -66 47 l-57 19 -35 -26 c-21 -16 -47 -27
-66 -27 -18 0 -43 -9 -57 -20 -14 -11 -32 -20 -40 -20 -7 0 -26 -8 -41 -19
-45 -31 -135 -87 -162 -101 -14 -7 -52 -35 -85 -62 -33 -27 -69 -51 -80 -54
-24 -6 -114 -134 -170 -241 -22 -42 -45 -78 -51 -80 -17 -6 -23 44 -13 111 12
81 11 213 -1 235 -6 13 -4 27 8 48 22 40 136 163 150 163 6 0 31 26 54 57 24
32 50 65 59 74 9 9 36 43 60 75 23 33 48 64 54 69 7 6 36 48 66 95 31 47 64
98 75 114 27 41 30 46 54 96 12 25 30 54 40 65 9 11 20 37 23 59 3 21 13 46
21 55 8 9 18 30 22 46 4 17 13 41 20 55 8 14 19 57 24 95 34 220 34 219 16
296 -27 109 -60 172 -114 216 -73 60 -124 89 -166 96 -50 8 -81 39 -66 66 5
11 14 51 20 90 5 39 11 76 12 82 5 21 -23 21 -29 0 -7 -26 -33 -28 -33 -2 0
10 5 42 10 71 12 66 6 90 -20 83 -18 -5 -20 0 -20 65 0 46 -6 84 -19 113 -10
24 -22 68 -26 96 -4 29 -15 64 -26 77 -13 17 -21 48 -25 103 -4 43 -13 88 -20
100 -8 12 -14 30 -14 40 0 10 -7 31 -15 46 -16 31 -19 86 -17 327 1 91 -1 178
-5 194 -4 21 -1 31 11 38 16 9 16 11 0 29 -12 14 -15 30 -12 63 3 25 1 49 -5
55 -17 17 -44 13 -52 -6z m64 -976 c1 -24 4 -27 25 -21 28 7 36 -13 36 -96 0
-35 6 -64 16 -79 11 -15 19 -55 23 -110 4 -57 12 -94 24 -111 11 -16 17 -43
17 -77 0 -38 5 -57 19 -70 12 -11 21 -37 24 -68 3 -27 6 -59 8 -70 4 -18 -2
-20 -74 -23 -45 -2 -84 2 -92 8 -9 7 -23 6 -48 -5 -40 -17 -67 -11 -67 14 0 9
9 99 20 201 11 102 20 202 20 223 0 20 5 37 10 37 6 0 10 -40 10 -100 0 -87 2
-101 19 -109 34 -19 43 9 39 113 -1 52 -6 97 -9 101 -4 3 -20 7 -35 9 -25 3
-29 8 -32 40 -3 33 -1 36 22 36 25 0 26 2 26 58 -1 31 -7 68 -15 82 -15 27
-20 72 -8 84 9 9 21 -27 22 -67z m-31 -796 c11 -7 14 -118 15 -602 2 -528 4
-597 18 -623 l17 -30 8 55 c5 30 8 311 6 626 -1 341 1 574 7 577 15 10 162
-14 187 -30 16 -11 28 -13 41 -6 14 8 32 2 77 -24 72 -43 89 -62 127 -142 22
-50 29 -78 29 -127 0 -77 -45 -272 -69 -300 -10 -11 -24 -42 -31 -70 -12 -45
-55 -131 -102 -203 -10 -15 -22 -38 -28 -50 -6 -13 -25 -43 -44 -65 -18 -23
-40 -54 -47 -69 -26 -50 -133 -178 -149 -178 -9 0 -21 -15 -29 -36 -17 -46
-101 -152 -141 -177 -26 -16 -31 -17 -36 -4 -3 9 -1 24 4 34 21 40 32 139 42
378 6 138 15 300 20 360 6 61 13 241 16 400 4 176 10 295 16 303 12 14 27 15
46 3z m-105 -46 c-2 -11 -7 -51 -13 -90 -5 -38 -14 -171 -20 -295 -6 -124 -18
-344 -26 -490 -9 -146 -14 -344 -13 -440 3 -185 -1 -205 -44 -235 -12 -8 -52
-43 -88 -78 -122 -116 -198 -174 -405 -314 -136 -91 -181 -118 -299 -175 -55
-27 -108 -53 -117 -58 -10 -6 -34 -14 -55 -19 -37 -10 -76 -22 -198 -62 -52
-17 -83 -19 -240 -17 -160 3 -180 5 -183 20 -3 15 20 44 147 183 21 22 50 57
66 78 l28 38 82 -7 c69 -5 92 -3 144 15 33 11 69 21 79 21 9 0 26 7 36 15 11
8 27 15 36 15 9 0 31 11 50 25 19 14 42 25 51 25 10 0 24 7 32 15 8 7 26 17
41 21 14 3 26 10 26 14 0 5 9 11 19 15 11 3 37 19 58 35 52 40 52 40 108 80
28 19 64 47 80 62 17 15 33 28 37 28 4 0 15 8 25 18 34 33 111 92 122 92 6 0
17 12 25 28 8 15 40 52 70 82 51 49 68 85 50 102 -13 14 -76 -32 -169 -123
-114 -111 -236 -219 -249 -219 -4 0 -29 -17 -55 -38 -60 -49 -122 -90 -177
-116 -17 -8 -36 -22 -44 -30 -7 -9 -20 -16 -29 -16 -9 0 -29 -9 -46 -20 -16
-11 -40 -20 -51 -20 -12 0 -27 -6 -33 -14 -7 -8 -31 -18 -54 -21 -23 -4 -54
-13 -68 -21 -36 -18 -108 -34 -125 -27 -26 10 -14 34 54 107 105 114 125 136
199 226 82 100 113 137 169 199 22 25 58 69 80 96 21 28 42 52 45 55 3 3 25
30 50 61 89 112 160 199 185 226 15 15 34 39 43 53 23 36 167 218 206 261 18
20 45 60 60 90 14 30 37 69 50 88 26 35 41 91 32 115 -3 8 -18 23 -33 33 -31
20 -18 33 -120 -121 -35 -54 -91 -133 -124 -175 -33 -42 -84 -107 -114 -146
-127 -163 -156 -201 -169 -215 -7 -8 -27 -33 -43 -55 -32 -44 -248 -318 -275
-350 -50 -57 -378 -474 -388 -493 -16 -31 -43 -27 -77 11 -53 59 -74 119 -74
213 0 89 29 230 61 300 10 23 19 47 19 53 0 7 9 29 19 49 11 20 31 62 46 92
14 30 36 72 48 92 62 105 108 176 131 203 13 17 55 68 92 115 180 226 408 433
604 548 30 18 62 37 70 42 8 5 35 18 60 28 25 11 67 30 94 42 27 12 65 24 85
27 20 4 41 12 46 20 6 7 28 16 50 20 22 3 54 12 70 19 17 8 55 13 85 11 49 -2
55 -4 53 -22z m-2105 -1919 c6 -13 16 -44 22 -68 23 -85 97 -176 198 -244 28
-19 52 -41 52 -48 0 -7 -25 -40 -56 -72 -72 -77 -191 -214 -230 -267 -44 -60
-69 -60 -96 -1 -18 42 -20 61 -15 158 5 113 23 235 58 383 10 45 19 96 19 113
0 33 15 70 29 70 4 0 13 -11 19 -24z m2782 -113 c-1 -16 -7 -39 -15 -53 -20
-36 -19 -131 2 -169 10 -16 28 -33 41 -36 31 -8 122 4 147 20 11 7 35 16 53
20 18 3 37 15 42 26 12 22 47 24 73 5 12 -9 17 -27 17 -63 0 -33 5 -55 15 -63
8 -7 15 -29 15 -50 0 -22 8 -48 20 -63 11 -14 20 -34 20 -45 0 -27 18 -75 31
-83 6 -3 13 -25 16 -47 3 -23 12 -47 19 -53 8 -6 14 -24 14 -39 0 -15 9 -39
20 -53 11 -14 23 -40 26 -59 4 -18 12 -40 19 -48 7 -8 15 -35 18 -60 3 -24 13
-49 21 -56 9 -6 16 -25 16 -41 0 -17 8 -38 20 -48 11 -10 23 -34 26 -54 4 -20
12 -43 19 -51 7 -8 16 -31 20 -50 4 -19 14 -44 21 -55 8 -11 14 -34 14 -51 0
-18 8 -38 19 -48 10 -10 22 -32 25 -51 4 -18 13 -38 20 -44 8 -7 17 -27 20
-45 4 -19 13 -39 21 -46 8 -7 15 -24 15 -38 0 -14 7 -33 16 -43 9 -10 20 -37
25 -61 6 -23 16 -50 23 -58 8 -8 17 -29 21 -47 3 -17 13 -37 21 -44 8 -6 14
-22 14 -35 0 -13 9 -32 20 -41 11 -10 20 -27 20 -39 0 -12 9 -33 20 -47 11
-14 20 -33 20 -44 1 -10 9 -36 20 -58 11 -22 19 -47 20 -56 0 -9 9 -26 20 -39
11 -13 20 -31 20 -40 0 -10 9 -29 20 -43 11 -14 20 -31 20 -39 0 -7 9 -26 20
-43 11 -16 20 -40 20 -51 0 -12 6 -27 14 -33 8 -6 19 -31 25 -55 6 -24 17 -49
26 -56 8 -7 15 -21 15 -31 0 -10 7 -22 16 -27 9 -5 18 -20 19 -33 4 -38 4 -39
21 -39 8 0 21 -15 29 -33 8 -19 21 -39 29 -47 9 -7 16 -23 16 -35 0 -12 7 -28
15 -35 8 -7 15 -23 15 -36 0 -13 13 -36 29 -51 28 -26 35 -42 32 -69 -1 -8
-68 -12 -228 -13 -213 -1 -316 5 -528 29 -49 6 -256 15 -460 20 -203 5 -388
14 -410 20 -22 6 -204 13 -405 16 -200 3 -368 8 -372 10 -12 8 1 279 17 349 7
33 16 141 19 240 3 99 10 225 15 280 6 55 15 174 21 265 6 91 15 219 20 285
24 302 52 858 56 1115 l2 145 23 -3 c13 -2 60 -7 104 -10 72 -6 80 -9 78 -27
-1 -11 -3 -89 -4 -172 -1 -115 -5 -156 -15 -164 -19 -15 -17 -44 3 -75 16 -25
16 -27 -6 -43 -22 -17 -23 -21 -14 -92 8 -55 7 -79 -2 -94 -8 -13 -13 -71 -14
-169 -1 -82 -6 -157 -12 -167 -12 -23 -31 -299 -23 -339 4 -17 11 -33 16 -36
14 -9 40 67 44 131 2 33 9 85 15 115 6 30 14 129 19 220 4 91 13 190 20 220 8
35 14 177 16 385 l3 330 28 9 c15 4 35 12 43 17 8 5 26 14 40 20 71 31 187 94
206 110 11 11 25 19 31 19 5 0 18 9 28 20 10 11 24 20 31 20 7 0 18 9 24 20
16 30 40 25 40 -7z m-3502 -3640 c-2 -10 -14 -19 -26 -21 -21 -3 -22 -1 -12
17 13 26 43 28 38 4z"/>
<path d="M4572 6558 c-26 -26 -9 -208 19 -208 13 0 20 60 17 139 -3 74 -13 92
-36 69z"/>
<path d="M4815 6190 c-4 -6 0 -22 9 -35 10 -16 16 -47 16 -88 0 -49 5 -70 20
-90 16 -20 20 -40 20 -95 0 -50 4 -73 15 -82 8 -7 15 -24 15 -39 0 -45 11 -71
30 -71 35 0 41 70 10 127 -13 25 -20 57 -20 94 0 43 -5 60 -20 74 -12 11 -20
31 -20 50 0 57 -12 94 -31 100 -13 4 -19 16 -19 36 0 29 -13 39 -25 19z"/>
<path d="M4145 6073 c-43 -96 -20 -181 24 -90 22 45 29 131 11 142 -5 3 -21
-20 -35 -52z"/>
<path d="M4092 5478 c-7 -7 -12 -18 -12 -26 0 -7 -9 -33 -20 -58 -22 -47 -32
-90 -55 -247 -19 -125 -19 -168 -1 -192 14 -19 15 -19 28 10 7 17 18 35 24 42
12 12 19 65 30 233 4 52 10 102 15 110 4 9 11 44 15 78 7 62 0 74 -24 50z"/>
<path d="M3991 4652 c-21 -40 -42 -114 -39 -140 9 -83 82 19 76 107 -3 48 -21
64 -37 33z"/>
<path d="M4501 3170 l2 -95 9 84 c6 58 6 87 -1 94 -8 8 -11 -17 -10 -83z"/>
<path d="M4472 2810 c0 -19 2 -27 5 -17 2 9 2 25 0 35 -3 9 -5 1 -5 -18z"/>
<path d="M4412 2528 c-6 -8 -11 -100 -14 -222 -3 -209 -3 -209 20 -219 28 -13
30 -66 3 -91 -15 -13 -20 -34 -22 -96 -3 -56 -9 -83 -22 -97 -14 -16 -17 -39
-17 -132 0 -92 -4 -119 -20 -151 -15 -29 -20 -59 -20 -115 0 -73 1 -76 23 -73
20 3 23 10 28 78 3 42 12 88 22 105 12 22 17 54 17 114 0 57 4 90 14 100 16
19 36 98 36 144 0 18 7 55 16 81 13 36 15 64 10 115 -4 36 -7 82 -7 102 1 20
-5 51 -13 70 -7 19 -17 62 -21 96 -6 54 -4 64 10 69 26 10 36 -9 43 -77 4 -45
7 -57 12 -39 11 46 33 33 100 -62 95 -133 139 -172 153 -134 3 7 2 29 -2 47
-4 19 -3 104 2 190 11 171 7 209 -22 209 -36 0 -44 -25 -37 -113 4 -45 12
-104 18 -130 14 -69 -1 -81 -44 -34 -71 76 -142 171 -164 216 -14 32 -30 50
-45 54 -35 10 -45 8 -57 -5z"/>
<path d="M4953 2530 c-21 -9 -21 -13 -21 -223 l0 -215 26 -4 c15 -2 79 -4 142
-4 109 1 115 2 118 22 5 38 -18 45 -103 33 -42 -6 -83 -8 -91 -5 -10 4 -14 26
-14 81 l0 77 71 -4 c60 -2 73 0 83 15 18 28 -10 38 -86 31 l-68 -6 0 77 0 77
98 -3 97 -4 3 33 3 32 -118 -1 c-65 0 -128 -4 -140 -9z"/>
<path d="M5341 2531 c-15 -10 -15 -10 33 -126 40 -95 59 -144 66 -173 4 -18
12 -38 18 -45 5 -7 13 -33 16 -59 9 -63 36 -66 66 -8 29 57 26 83 -14 113 -24
19 -36 37 -40 64 -4 21 -13 56 -21 78 -7 22 -19 62 -26 88 -6 27 -18 55 -26
63 -16 16 -51 18 -72 5z"/>
<path d="M5557 2533 c-13 -13 -7 -44 19 -93 l26 -50 -20 -49 c-15 -34 -19 -56
-13 -77 7 -29 8 -29 19 -7 7 12 12 31 12 42 0 74 62 -51 78 -159 6 -37 11 -46
30 -48 36 -5 52 15 52 68 0 37 -4 49 -17 52 -12 3 -25 27 -37 64 -10 32 -29
92 -42 132 -13 40 -24 81 -24 92 0 29 -62 54 -83 33z"/>
<path d="M5836 2524 c-3 -9 -6 -26 -6 -39 0 -12 -7 -28 -15 -35 -7 -6 -17 -33
-21 -58 -4 -26 -13 -56 -20 -67 -18 -25 -18 -89 -1 -104 19 -15 37 5 37 42 0
16 9 40 20 54 11 14 20 40 20 58 0 18 7 38 15 45 24 20 40 86 25 105 -16 20
-46 19 -54 -1z"/>
<path d="M4545 1376 l-21 -23 351 -7 c192 -4 388 -11 435 -17 162 -18 231 -21
308 -14 110 11 65 21 -153 34 -99 7 -198 16 -220 20 -65 14 -402 23 -505 12
-52 -5 -99 -6 -105 -1 -5 4 -24 10 -40 13 -23 4 -35 0 -50 -17z"/>
<path d="M6464 1330 c8 -62 15 -82 27 -74 12 7 11 81 -1 105 -20 37 -33 22
-26 -31z"/>
<path d="M5080 7961 c-9 -5 -85 -13 -170 -16 -85 -3 -159 -10 -164 -16 -6 -5
12 -9 50 -10 379 -3 355 -1 401 -33 24 -16 45 -38 49 -48 3 -10 9 -18 13 -18
8 0 59 -70 71 -96 12 -26 59 -72 81 -79 13 -4 36 -17 51 -28 19 -14 34 -18 53
-13 18 5 36 1 52 -10 17 -11 35 -14 57 -10 17 4 54 11 83 15 29 5 62 16 75 25
12 9 37 16 56 16 20 0 35 6 38 15 8 21 104 21 104 1 0 -19 -19 -31 -50 -31
-18 0 -26 -6 -28 -22 -3 -19 1 -23 22 -23 40 0 31 -27 -16 -51 -24 -12 -55
-30 -70 -41 -40 -28 -134 -30 -154 -4 -12 16 -18 18 -39 8 -26 -12 -32 -26
-15 -37 19 -11 10 -23 -37 -52 -46 -27 -54 -28 -161 -27 -89 1 -116 4 -130 18
-10 9 -23 16 -29 16 -5 0 -35 20 -67 44 -31 25 -76 51 -99 59 -23 8 -58 20
-77 27 -77 26 -109 33 -213 40 -59 4 -113 13 -121 19 -18 15 -33 -3 -38 -44
l-3 -30 139 -3 c102 -2 144 -6 159 -17 12 -8 36 -15 55 -15 37 0 73 -15 85
-36 4 -8 13 -14 18 -14 6 0 29 -15 52 -33 52 -41 142 -87 170 -87 12 0 35 -7
51 -15 65 -34 186 -5 260 63 25 23 49 42 52 42 4 0 16 -7 26 -17 16 -14 23
-15 61 -3 62 18 89 33 181 98 26 17 52 32 59 32 7 0 29 9 50 20 20 11 49 20
65 20 15 0 43 9 63 19 19 11 68 22 110 26 92 8 335 -10 382 -30 19 -8 65 -17
103 -21 38 -3 79 -13 91 -20 25 -16 109 -19 118 -5 3 6 -18 21 -46 36 -28 14
-63 34 -76 45 -14 11 -33 20 -42 20 -9 0 -25 7 -35 15 -11 8 -34 15 -52 15
-18 0 -39 7 -48 15 -8 8 -28 15 -45 15 -17 0 -38 8 -48 19 -38 39 -61 44 -98
21 -19 -12 -45 -20 -57 -18 -26 3 -37 36 -17 49 7 4 10 11 6 15 -11 11 -275
15 -282 4 -9 -15 7 -18 90 -21 94 -3 128 -13 123 -35 -2 -13 -22 -17 -103 -21
-105 -4 -183 9 -192 34 -6 15 -43 18 -43 3 0 -5 9 -14 21 -20 13 -7 19 -19 17
-33 -3 -20 -8 -22 -48 -18 -29 2 -49 10 -58 22 -16 24 -28 24 -105 0 -136 -43
-272 -66 -339 -58 -50 7 -98 46 -151 125 -60 89 -112 144 -167 175 -52 29
-108 41 -130 28z m940 -361 c0 -5 -9 -10 -21 -10 -11 0 -17 5 -14 10 3 6 13
10 21 10 8 0 14 -4 14 -10z"/>
<path d="M4684 7843 c-43 -47 -21 -76 29 -39 26 19 42 21 180 21 223 -1 246
-7 305 -79 7 -9 17 -14 23 -11 17 11 9 42 -17 61 -15 10 -39 29 -55 42 -28 23
-36 24 -235 27 l-206 3 -24 -25z"/>
<path d="M5240 7690 c0 -11 5 -20 10 -20 6 0 10 9 10 20 0 11 -4 20 -10 20 -5
0 -10 -9 -10 -20z"/>
<path d="M5272 7651 c2 -7 7 -12 11 -12 12 1 9 15 -3 20 -7 2 -11 -2 -8 -8z"/>
<path d="M5322 7604 c1 -9 9 -19 16 -22 9 -3 13 2 10 14 -1 9 -9 19 -16 22 -9
3 -13 -2 -10 -14z"/>
<path d="M5374 7555 c25 -19 46 -19 46 0 0 10 -10 15 -32 15 -31 -1 -32 -1
-14 -15z"/>
<path d="M5800 7554 c0 -14 7 -15 37 -11 58 10 65 27 10 27 -37 0 -47 -4 -47
-16z"/>
<path d="M5450 7530 c0 -13 45 -24 66 -16 8 3 12 10 9 16 -8 13 -75 13 -75 0z"/>
<path d="M5695 7531 c-6 -11 63 -33 77 -25 4 3 8 12 8 20 0 16 -75 21 -85 5z"/>
<path d="M4851 6443 c0 -10 4 -27 9 -38 7 -16 9 -13 9 18 1 20 -3 37 -9 37 -5
0 -10 -8 -9 -17z"/>
<path d="M5165 5488 c-8 -20 28 -185 49 -226 7 -15 16 -44 20 -66 4 -21 11
-46 15 -55 5 -9 23 -61 41 -116 18 -55 39 -107 47 -116 7 -8 13 -23 13 -31 0
-9 9 -26 20 -39 l19 -24 1 50 c0 28 -6 59 -14 70 -7 11 -16 41 -20 67 -4 25
-14 52 -21 58 -8 7 -15 24 -15 39 0 14 -11 47 -25 73 -14 26 -25 60 -25 75 0
16 -6 37 -14 48 -7 11 -16 38 -20 59 -4 22 -14 49 -22 60 -8 11 -14 28 -14 36
0 9 -6 25 -14 36 -13 17 -15 18 -21 2z"/>
<path d="M5062 5334 c-23 -44 -23 -80 -2 -99 15 -13 20 -31 20 -64 0 -26 7
-56 16 -69 8 -12 18 -48 21 -80 3 -31 11 -66 18 -77 6 -11 15 -33 19 -50 9
-35 25 -48 43 -33 18 15 16 78 -3 99 -9 10 -19 46 -23 80 -5 36 -14 66 -23 73
-8 6 -17 32 -20 58 -3 26 -13 54 -22 63 -9 9 -16 33 -16 53 0 49 -14 72 -28
46z"/>
<path d="M2498 5172 c-63 -42 -104 -106 -94 -148 14 -53 100 -37 164 30 49 52
52 76 15 111 -33 30 -49 31 -85 7z"/>
<path d="M6574 5170 c-39 -25 -104 -107 -104 -131 0 -31 44 -52 93 -45 47 7
108 60 121 103 10 33 -3 69 -30 82 -34 15 -44 14 -80 -9z"/>
<path d="M2527 4922 c-20 -21 -37 -42 -37 -48 0 -5 -9 -17 -20 -27 -11 -9 -20
-27 -20 -40 0 -13 -4 -27 -9 -32 -19 -19 -61 -106 -61 -126 0 -60 91 34 152
157 62 127 60 183 -5 116z"/>
<path d="M5400 4781 c0 -16 5 -33 10 -36 6 -4 10 6 10 24 0 16 -4 33 -10 36
-6 4 -10 -6 -10 -24z"/>
<path d="M4590 4644 c-22 -58 -4 -136 26 -116 17 11 24 67 13 106 -12 42 -26
46 -39 10z"/>
<path d="M5520 4363 c0 -40 38 -120 55 -116 17 4 17 54 0 73 -9 10 -20 30 -24
46 -11 44 -31 42 -31 -3z"/>
<path d="M3966 4127 c-35 -53 -39 -118 -33 -647 4 -307 11 -537 17 -570 6 -30
15 -116 20 -190 4 -74 19 -191 33 -260 14 -69 28 -148 31 -177 4 -29 13 -71
22 -95 11 -31 13 -59 8 -98 -10 -86 -5 -227 10 -268 16 -40 36 -170 36 -230 1
-44 24 -83 34 -56 10 26 7 284 -4 303 -5 10 -14 87 -20 171 -6 84 -16 162 -22
173 -6 11 -14 94 -19 183 -5 89 -14 175 -20 191 -6 15 -15 117 -20 226 -5 109
-12 203 -15 208 -12 21 -18 229 -16 634 3 519 -1 565 -42 502z"/>
<path d="M2067 4033 c-4 -3 -7 -14 -7 -23 0 -10 -7 -23 -16 -31 -19 -16 -52
-77 -92 -169 -8 -19 -21 -46 -28 -60 -7 -14 -19 -36 -25 -50 -6 -14 -15 -32
-20 -40 -10 -16 -24 -46 -33 -70 -3 -8 -10 -22 -15 -30 -5 -8 -14 -26 -20 -40
-6 -14 -27 -54 -46 -90 -19 -36 -35 -72 -35 -81 0 -9 -7 -22 -15 -29 -8 -7
-15 -19 -15 -27 0 -7 -20 -49 -45 -93 -25 -44 -45 -86 -45 -93 0 -8 -7 -20
-15 -27 -8 -7 -15 -20 -15 -30 0 -9 -8 -28 -17 -41 -10 -13 -31 -51 -47 -84
-16 -33 -33 -67 -37 -75 -5 -8 -12 -22 -15 -30 -6 -16 -60 -126 -74 -150 -49
-87 -59 -127 -37 -148 9 -10 12 -74 12 -250 0 -237 0 -237 -24 -261 -21 -21
-27 -23 -56 -12 -17 6 -39 11 -48 11 -15 0 -37 -28 -37 -47 0 -12 71 -43 99
-43 41 0 108 56 134 112 23 51 24 60 23 278 l-1 225 -39 5 c-49 6 -56 24 -18
44 34 18 111 129 148 216 22 51 35 77 44 93 25 43 30 53 36 67 3 8 50 105 104
215 162 328 232 479 287 620 38 97 83 225 83 238 0 9 -24 9 -33 0z"/>
<path d="M5717 3823 c-22 -21 -2 -97 110 -423 17 -47 35 -103 41 -125 18 -66
42 -138 56 -167 8 -14 26 -68 41 -120 15 -51 33 -104 40 -118 14 -26 37 -91
60 -170 19 -64 26 -80 36 -80 15 0 10 73 -6 104 -8 16 -18 46 -21 68 -4 21
-15 56 -25 76 -11 20 -19 45 -19 57 0 11 -9 37 -20 58 -11 20 -20 52 -20 70 0
18 -6 41 -14 52 -7 11 -16 38 -20 59 -4 22 -14 49 -22 60 -8 11 -14 33 -14 49
0 15 -11 49 -25 75 -14 26 -25 58 -25 72 -1 14 -7 36 -15 50 -8 14 -14 36 -15
50 0 14 -8 41 -19 60 -10 19 -22 55 -26 80 -4 25 -16 57 -26 72 -11 14 -19 35
-19 46 0 40 -16 62 -33 45z"/>
<path d="M6114 2584 c3 -9 6 -21 6 -27 0 -8 3 -8 11 0 13 13 5 43 -12 43 -6 0
-8 -7 -5 -16z"/>
<path d="M371 2526 c-8 -9 -12 -82 -13 -222 -2 -228 0 -234 56 -220 l28 7 -8
77 c-9 92 -8 112 4 124 15 15 47 1 61 -25 22 -41 66 -110 100 -155 20 -26 32
-32 63 -32 53 0 62 25 22 59 -54 47 -126 140 -122 158 2 10 12 19 23 21 11 2
32 16 48 30 21 20 27 35 27 66 0 49 -4 55 -54 95 -37 30 -43 31 -131 31 -67 0
-96 -4 -104 -14z m197 -78 c15 -25 15 -31 1 -70 l-16 -43 -59 0 -59 0 -3 59
c-4 84 -2 88 64 84 48 -3 58 -7 72 -30z"/>
<path d="M864 2528 c-11 -17 -11 -428 -1 -435 5 -3 56 -6 115 -8 59 -1 119 -5
135 -10 24 -6 28 -4 33 21 3 17 19 37 37 49 16 11 34 27 38 35 31 57 81 190
86 227 3 24 10 46 14 49 5 3 9 17 9 32 l0 27 -18 -30 c-11 -16 -26 -36 -35
-44 -10 -7 -17 -20 -17 -28 0 -12 -17 -50 -52 -113 -23 -44 -68 -140 -68 -148
0 -14 -182 -23 -197 -10 -20 16 -17 123 3 143 10 10 23 13 33 9 50 -22 111
-10 111 21 0 16 -44 25 -110 22 l-45 -2 0 70 0 70 100 0 100 0 0 30 0 30 -132
3 c-98 2 -133 -1 -139 -10z"/>
<path d="M1702 2493 c-72 -62 -92 -104 -92 -193 0 -89 30 -153 89 -194 37 -26
49 -28 122 -28 74 0 85 3 123 30 22 16 56 53 74 83 28 47 32 61 32 127 0 86
-17 124 -84 184 -41 37 -42 38 -126 38 l-85 0 -53 -47z m236 -63 c33 -43 34
-46 30 -125 -3 -70 -7 -85 -33 -120 -16 -22 -30 -42 -31 -43 -1 -2 -21 -8 -44
-13 -92 -21 -155 32 -166 140 -8 74 9 132 50 176 33 35 36 36 97 33 62 -3 64
-4 97 -48z"/>
<path d="M2209 2533 c-1 -5 -2 -106 -3 -227 -1 -236 -1 -239 51 -220 l26 9 -1
214 c0 166 -4 216 -14 222 -16 11 -58 12 -59 2z"/>
<path d="M2517 2478 c-57 -56 -66 -69 -72 -112 -19 -125 8 -201 93 -260 39
-26 46 -28 153 -28 115 1 134 6 127 38 -3 17 -14 19 -114 19 -107 0 -113 1
-133 25 -39 46 -55 84 -55 135 0 67 19 119 57 156 31 29 34 30 112 26 44 -3
90 -8 103 -12 22 -7 23 -5 20 31 l-3 39 -111 3 -111 3 -66 -63z"/>
<path d="M2973 2534 c-10 -4 -13 -59 -13 -225 0 -120 1 -219 3 -220 1 0 59 -2
130 -5 142 -5 175 3 156 37 -10 20 -18 21 -107 18 l-97 -4 -3 71 c-3 87 5 98
66 82 52 -13 74 -5 70 24 -3 21 -8 23 -68 23 l-65 0 -3 65 c-4 81 3 88 94 80
97 -8 116 -4 112 29 l-3 26 -130 2 c-71 1 -136 -1 -142 -3z"/>
<path d="M6235 2519 c-5 -14 -1 -30 12 -48 22 -29 73 -135 73 -150 0 -5 6 -22
14 -38 49 -102 59 -126 65 -155 5 -25 13 -34 31 -36 31 -5 50 21 50 70 0 32 4
40 25 48 19 7 25 17 25 41 0 18 7 40 15 49 9 10 19 35 22 56 3 22 12 46 19 54
19 22 46 101 40 117 -8 19 -63 16 -70 -3 -3 -9 -6 -29 -6 -46 0 -16 -9 -41
-20 -55 -11 -14 -20 -36 -20 -49 0 -13 -9 -41 -20 -61 -14 -27 -18 -48 -14
-70 5 -26 3 -33 -10 -33 -17 0 -56 55 -56 79 0 8 -9 32 -20 55 -11 23 -33 75
-49 116 -28 72 -31 75 -64 78 -29 3 -37 -1 -42 -19z"/>
<path d="M6828 2513 c-110 -87 -146 -207 -94 -318 31 -67 85 -114 134 -117
111 -5 155 3 198 39 59 48 94 123 94 202 0 76 -25 131 -84 183 -40 37 -42 37
-127 38 -79 0 -89 -2 -121 -27z m212 -75 c28 -38 30 -47 30 -128 0 -72 -3 -92
-20 -113 -11 -14 -20 -30 -20 -35 0 -12 -46 -31 -80 -33 -68 -5 -82 1 -130 58
-10 11 -16 46 -19 100 -3 71 0 87 19 118 36 58 65 75 131 75 57 0 60 -1 89
-42z"/>
<path d="M7312 2313 l3 -228 25 -3 c53 -6 55 4 50 238 l-5 215 -38 3 -37 3 2
-228z"/>
<path d="M7645 2509 c-69 -52 -84 -71 -100 -125 -18 -62 -19 -119 -3 -165 13
-38 56 -99 70 -99 5 0 22 -10 38 -22 26 -19 42 -21 141 -21 123 1 144 9 128
52 -8 19 -14 22 -37 17 -149 -33 -214 -14 -254 75 -35 79 -12 188 50 236 32
24 39 25 110 20 43 -3 87 -8 99 -12 26 -8 40 24 23 55 -10 18 -20 20 -118 19
-103 0 -109 -2 -147 -30z"/>
<path d="M8075 2529 c-4 -6 -7 -105 -8 -221 0 -172 2 -212 14 -217 8 -4 73 -7
144 -7 126 1 130 2 133 23 5 36 -26 45 -114 32 -91 -14 -102 -7 -103 69 0 82
3 85 68 78 42 -5 62 -3 76 8 33 25 4 41 -73 41 l-67 0 0 70 0 70 95 1 c127 1
122 0 118 32 l-3 27 -137 3 c-92 2 -139 -1 -143 -9z"/>
<path d="M3786 2508 c-9 -12 -16 -37 -16 -54 0 -23 -7 -36 -25 -48 -15 -10
-25 -26 -25 -40 0 -12 -9 -31 -20 -41 -11 -10 -20 -30 -20 -45 0 -15 -9 -39
-20 -53 -11 -14 -20 -33 -20 -43 0 -10 -12 -30 -27 -46 -22 -23 -24 -30 -13
-43 7 -8 21 -15 30 -15 26 0 60 47 60 81 0 39 24 49 114 49 84 0 99 -10 112
-78 7 -36 29 -52 69 -52 33 0 43 26 23 59 -25 41 -73 141 -98 201 -12 30 -29
69 -37 87 -8 17 -18 46 -22 65 -8 41 -41 50 -65 16z m16 -115 c25 -28 60 -110
56 -130 -3 -15 -13 -18 -57 -18 -46 -1 -55 2 -64 22 -8 19 -6 27 11 46 14 15
22 36 22 60 0 41 9 46 32 20z"/>
<path d="M1123 1925 c-3 -9 -3 -18 0 -21 9 -9 27 6 27 22 0 19 -19 18 -27 -1z"/>
<path d="M3990 1671 c0 -10 7 -24 15 -31 8 -7 15 -26 15 -42 0 -30 55 -98 79
-98 19 0 12 31 -11 55 -13 12 -38 47 -57 78 -18 32 -35 57 -37 57 -2 0 -4 -8
-4 -19z"/>
<path d="M7106 1602 c-19 -32 83 -82 167 -82 34 0 38 2 35 23 -2 18 -12 24
-58 32 -30 6 -65 16 -77 23 -25 14 -59 16 -67 4z"/>
<path d="M7387 1532 c-10 -2 -16 -9 -14 -15 4 -14 77 -28 94 -18 15 8 -56 38
-80 33z"/>
<path d="M6985 1508 c-3 -7 -6 -42 -7 -78 -3 -59 -5 -65 -28 -70 -18 -5 -24
-12 -22 -26 2 -10 6 -21 8 -23 6 -6 44 30 44 42 0 5 7 15 16 21 18 13 29 83
20 120 -7 27 -24 35 -31 14z"/>
<path d="M7100 1489 l-25 -10 24 -20 c13 -10 32 -19 42 -19 11 0 36 -9 56 -20
39 -21 166 -29 177 -11 12 19 -35 44 -98 50 -35 4 -70 12 -77 18 -22 17 -72
23 -99 12z"/>
<path d="M1112 1164 c1 -9 9 -19 16 -22 9 -3 13 2 10 14 -1 9 -9 19 -16 22 -9
3 -13 -2 -10 -14z"/>
<path d="M1390 980 c0 -5 12 -22 26 -37 50 -55 54 -60 54 -69 0 -5 18 -22 40
-37 22 -16 40 -35 40 -43 0 -16 75 -94 90 -94 5 0 21 -12 35 -27 18 -21 25
-24 25 -12 0 9 -24 41 -54 70 -29 30 -57 62 -62 71 -14 25 -173 188 -184 188
-6 0 -10 -4 -10 -10z"/>
<path d="M7459 923 c-6 -16 -17 -41 -24 -58 -7 -16 -17 -39 -21 -50 -7 -16 -9
-11 -12 23 -3 46 -22 49 -22 3 0 -20 -7 -31 -25 -39 -22 -10 -25 -18 -24 -59
0 -38 2 -43 9 -26 9 23 43 38 60 28 7 -4 9 -32 5 -78 -11 -133 -11 -134 -51
-142 l-36 -6 6 -48 c5 -40 3 -51 -14 -66 -11 -10 -20 -24 -20 -32 0 -18 -30
-17 -58 3 -19 13 -22 24 -22 79 0 63 2 67 45 103 12 10 14 28 10 90 -11 160
-32 174 -41 26 -3 -49 -12 -109 -20 -134 -7 -25 -16 -66 -19 -92 -7 -56 -10
-56 -120 -33 -48 10 -73 11 -80 4 -15 -16 23 -39 64 -39 20 0 50 -9 66 -20 17
-11 42 -20 58 -20 15 0 36 -9 46 -19 11 -11 39 -23 63 -28 54 -11 59 -36 8
-43 -24 -3 -36 -11 -38 -24 -4 -17 0 -18 29 -11 39 10 81 10 124 0 l30 -7 -2
89 c-2 52 3 112 12 148 8 33 21 130 30 215 8 86 19 169 24 185 11 42 2 105
-15 105 -8 0 -19 -12 -25 -27z"/>
<path d="M5337 805 c-20 -14 -43 -25 -52 -25 -17 0 -155 -77 -166 -93 -6 -8
-46 -37 -156 -112 -28 -20 -81 -44 -118 -54 -61 -17 -71 -18 -102 -4 -37 15
-79 10 -184 -23 -26 -8 -58 -14 -72 -14 -26 0 -83 42 -120 87 -10 13 -23 23
-28 23 -17 0 -9 -29 16 -56 14 -15 25 -30 25 -33 0 -3 18 -25 40 -48 48 -53
85 -56 151 -15 61 39 140 64 157 50 19 -16 120 -17 140 -2 9 8 29 14 44 14 25
0 107 35 118 51 3 3 39 31 81 61 87 62 103 75 131 106 12 12 30 22 40 22 10 0
26 9 35 20 26 30 181 29 238 -1 62 -32 96 -69 93 -99 -3 -26 -45 -51 -190
-114 -62 -26 -73 -49 -42 -80 43 -44 209 14 277 96 20 26 37 55 37 65 0 13 15
23 51 35 44 14 56 15 89 3 57 -20 119 -63 172 -117 25 -26 51 -48 56 -48 5 0
16 -10 25 -22 13 -21 22 -23 97 -22 74 1 85 4 100 24 17 23 22 23 177 23 138
0 163 -2 187 -19 21 -13 45 -18 88 -17 52 2 60 -1 74 -22 13 -19 25 -25 55
-25 70 0 57 30 -21 50 -51 13 -190 45 -264 60 -62 13 -206 12 -271 -2 -27 -5
-78 -12 -113 -15 -73 -6 -124 14 -166 65 -15 16 -50 46 -79 66 -28 20 -62 43
-74 52 -30 22 -155 21 -188 0 -20 -13 -25 -13 -44 0 -11 8 -21 20 -21 25 0 15
-56 60 -104 85 -29 15 -62 21 -112 22 -59 1 -76 -2 -107 -23z"/>
<path d="M2235 743 c-75 -4 -105 -11 -105 -23 0 -14 197 -13 206 1 7 12 -14
30 -31 27 -5 -1 -37 -3 -70 -5z"/>
<path d="M2360 740 c-37 -26 56 -50 159 -41 14 1 29 -6 38 -18 8 -12 19 -21
24 -21 15 0 118 -50 124 -61 8 -12 48 -12 43 0 -8 23 -131 111 -154 111 -14 0
-35 7 -48 15 -28 19 -165 30 -186 15z"/>
<path d="M3211 660 c-29 -5 -58 -13 -64 -19 -6 -6 -19 -11 -28 -11 -19 0 -102
-41 -129 -64 -19 -16 -117 -54 -150 -58 -20 -2 -26 3 -33 30 -6 17 -14 32 -18
32 -12 0 -11 -7 2 -28 9 -14 8 -26 -5 -50 -14 -27 -22 -32 -54 -32 -21 0 -59
7 -84 16 -44 14 -49 14 -92 -5 -25 -12 -58 -21 -73 -21 -33 0 -119 -58 -106
-71 5 -5 76 -4 158 1 155 9 269 32 302 61 10 9 28 20 40 23 11 4 27 13 33 21
7 8 22 15 35 15 12 0 30 9 40 20 10 11 28 20 40 20 14 0 26 9 33 25 8 18 19
25 38 25 15 0 35 7 43 15 9 8 46 18 81 22 50 6 66 12 68 26 4 18 4 18 -77 7z"/>
<path d="M3406 663 c-19 -19 -3 -33 38 -33 32 0 47 -5 57 -20 19 -26 69 -38
69 -16 0 24 -147 86 -164 69z"/>
<path d="M4155 655 c-5 -1 -36 -10 -67 -20 -31 -9 -59 -23 -62 -31 -3 -8 -14
-14 -25 -14 -11 0 -32 -11 -48 -24 -34 -29 -155 -61 -180 -48 -10 5 -35 12
-55 16 -21 4 -51 18 -67 31 -28 25 -71 34 -71 16 0 -14 30 -41 45 -41 8 0 19
-9 25 -20 7 -13 21 -20 41 -20 16 0 43 -10 59 -21 23 -17 38 -21 75 -17 25 3
54 13 64 22 10 9 27 16 39 16 11 0 24 5 28 11 3 6 22 17 40 25 19 8 34 18 34
23 0 5 10 11 23 15 12 3 33 15 47 28 18 17 39 23 88 26 56 4 65 2 78 -17 8
-11 24 -21 35 -21 26 0 20 24 -7 29 -10 1 -26 9 -34 16 -15 12 -86 26 -105 20z"/>
<path d="M1425 313 c-71 -36 -141 -71 -155 -78 -79 -41 -297 -95 -388 -95 -76
0 -132 -8 -132 -20 0 -13 81 -31 148 -32 37 0 168 7 292 16 156 12 340 16 598
15 281 -1 376 2 387 11 11 9 36 10 87 6 106 -10 3047 13 3067 24 18 9 120 12
421 11 102 0 477 2 834 5 498 4 646 8 637 17 -8 8 -53 11 -143 9 -124 -2 -132
-1 -155 20 -21 20 -33 22 -151 22 -74 0 -142 -5 -163 -12 -27 -9 -44 -10 -64
-2 -17 7 -123 11 -267 11 -222 1 -239 0 -263 -19 -33 -26 -144 -25 -173 1 -28
26 -156 24 -199 -3 -39 -23 -93 -17 -100 12 -6 20 -23 24 -40 7 -8 -8 -130
-13 -405 -16 -216 -2 -409 -8 -428 -14 -21 -5 -358 -12 -825 -15 -1081 -7
-1094 -7 -1124 12 -35 23 -258 23 -293 0 -35 -23 -223 -33 -578 -30 -371 3
-450 9 -450 34 0 23 22 46 52 56 12 4 42 26 65 50 23 24 47 44 53 44 6 0 8 5
5 10 -8 14 -4 15 -150 -57z"/>
<path d="M2957 344 c-14 -14 -7 -25 13 -22 12 2 21 8 21 13 0 12 -24 18 -34 9z"/>
<path d="M2875 300 c-4 -6 5 -10 20 -10 15 0 24 4 20 10 -3 6 -12 10 -20 10
-8 0 -17 -4 -20 -10z"/>
<path d="M5886 292 c-9 -16 5 -21 51 -18 43 2 74 16 36 16 -11 0 -34 3 -51 6
-16 3 -32 1 -36 -4z"/>
<path d="M6973 293 c-30 -12 -9 -23 44 -23 33 0 53 4 48 9 -13 11 -76 21 -92
14z"/>
<path d="M2758 258 c9 -9 15 -9 24 0 9 9 7 12 -12 12 -19 0 -21 -3 -12 -12z"/>
<path d="M1515 210 c-3 -5 1 -10 9 -10 8 0 18 5 21 10 3 6 -1 10 -9 10 -8 0
-18 -4 -21 -10z"/>
</g>
</svg>
