<?xml version="1.0" standalone="no"?>
<!DOCTYPE svg PUBLIC "-//W3C//DTD SVG 20010904//EN"
 "http://www.w3.org/TR/2001/REC-SVG-20010904/DTD/svg10.dtd">
<svg version="1.0" xmlns="http://www.w3.org/2000/svg"
 width="291.000000pt" height="277.000000pt" viewBox="0 0 291.000000 277.000000"
 preserveAspectRatio="xMidYMid meet">
<metadata>
Created by potrace 1.10, written by Peter Selinger 2001-2011
</metadata>
<g transform="translate(0.000000,277.000000) scale(0.100000,-0.100000)"
fill="#000000" stroke="none">
<path d="M1506 2638 c-3 -24 -9 -140 -12 -258 -3 -118 -6 -228 -7 -244 -2 -26
-7 -29 -73 -46 -140 -36 -273 -122 -365 -236 -97 -120 -139 -216 -139 -315 0
-54 3 -64 29 -88 l29 -27 -39 -48 -39 -49 -34 36 c-36 39 -50 85 -40 135 10
50 -20 41 -47 -14 -15 -32 -35 -54 -67 -73 -24 -14 -64 -39 -89 -55 -87 -57
-62 -12 84 151 46 50 83 94 83 97 0 3 -10 6 -22 6 -16 -1 -45 -27 -96 -88
-124 -147 -158 -212 -114 -212 19 0 91 37 149 76 21 14 39 21 41 16 2 -6 -4
-37 -12 -70 -26 -99 -18 -182 18 -182 8 0 44 33 81 72 l67 73 87 1 c47 0 106
7 131 13 76 21 207 92 275 148 35 29 66 53 68 53 4 0 1 -99 -8 -235 -3 -49
-12 -228 -20 -397 -9 -169 -18 -341 -22 -382 -6 -74 -6 -75 -32 -71 -54 8
-398 27 -739 40 -195 7 -356 16 -360 19 -9 10 27 34 108 72 41 20 82 39 91 44
25 13 122 31 191 34 69 4 135 -8 278 -51 47 -14 112 -34 145 -43 33 -10 107
-35 164 -55 110 -38 140 -41 103 -10 -12 11 -27 34 -33 52 -6 18 -15 33 -20
33 -5 0 -3 -14 6 -30 9 -17 12 -30 8 -30 -13 0 -30 14 -36 30 -4 12 -6 11 -6
-2 -1 -10 -4 -18 -7 -18 -3 0 -89 27 -191 60 -102 33 -222 67 -266 76 -138 28
-301 8 -412 -52 -52 -27 -55 -28 -55 -14 0 5 10 15 23 22 12 7 23 21 23 30 1
10 -2 15 -7 12 -5 -3 -9 4 -9 16 0 33 -15 16 -53 -57 -19 -38 -43 -83 -53
-102 -15 -26 -16 -35 -6 -38 7 -3 24 -26 37 -53 32 -64 134 -198 185 -244 23
-21 40 -39 38 -41 -22 -19 -164 -68 -211 -73 -34 -3 -53 -8 -46 -12 8 -4 136
-4 284 1 149 4 416 8 595 8 590 1 1280 15 1210 24 -55 7 -325 11 -340 6 -12
-5 -160 -4 -160 1 0 3 -80 2 -177 -2 -98 -3 -306 -6 -463 -6 -352 0 -360 0
-549 -8 -96 -4 -151 -2 -147 4 3 5 -5 7 -19 4 -30 -5 -34 13 -5 21 11 3 29 20
40 39 21 36 82 73 138 84 18 4 32 10 32 15 0 14 -28 11 -60 -6 -76 -39 -78
-39 -126 12 -24 27 -55 63 -67 80 -12 18 -28 35 -35 38 -21 8 2 -27 68 -99 33
-36 60 -72 59 -79 0 -9 -2 -9 -6 1 -2 6 -11 12 -18 12 -8 0 -24 15 -36 32 -13
18 -29 38 -35 43 -17 14 -144 177 -144 184 0 8 99 4 270 -9 69 -6 247 -15 395
-20 149 -6 299 -13 335 -15 93 -8 417 -23 615 -30 94 -4 190 -9 215 -12 93
-11 366 -19 390 -10 43 14 6 23 -117 26 -119 2 -148 10 -125 33 7 7 12 24 12
39 0 15 4 30 9 34 5 3 12 19 16 36 5 20 11 29 21 25 8 -3 14 1 14 9 0 17 38
29 71 22 19 -3 17 -5 -8 -6 -49 -2 -40 -18 15 -25 27 -3 57 -13 68 -21 18 -14
18 -14 -11 -16 -24 -1 -25 -3 -7 -6 25 -5 30 -23 7 -23 -8 0 -15 -4 -15 -10 0
-5 5 -10 10 -10 6 0 10 -6 10 -13 0 -8 9 -22 21 -33 29 -26 41 -52 32 -67 -4
-6 -8 -64 -9 -127 0 -63 -4 -125 -8 -137 -5 -17 -3 -23 7 -23 15 0 17 19 33
251 4 73 3 89 -12 103 -9 10 -23 15 -30 12 -17 -7 -17 3 0 76 16 64 12 72 -39
81 -74 14 -127 17 -145 7 -27 -14 -69 -100 -77 -155 -3 -28 -11 -45 -19 -45
-8 0 -14 4 -14 10 0 5 -29 70 -65 144 -35 74 -67 146 -71 160 -3 14 -10 26
-15 26 -5 0 -9 5 -9 12 0 6 -8 30 -19 52 -39 87 -70 162 -76 189 -4 15 -11 27
-15 27 -4 0 -13 21 -20 47 -6 26 -15 52 -19 58 -5 5 -21 46 -36 90 -16 44 -33
86 -38 93 -5 6 -6 12 -2 12 4 0 1 7 -6 17 -10 11 -10 17 -3 20 6 2 26 15 44
28 39 29 49 26 26 -7 -21 -30 -21 -58 2 -58 23 0 100 41 191 103 40 27 72 45
70 39 -2 -6 -30 -38 -61 -71 -32 -34 -58 -66 -58 -71 0 -24 32 -6 72 41 39 46
198 182 205 175 2 -1 -6 -29 -17 -61 -22 -63 -20 -75 12 -75 26 0 137 72 120
78 -7 2 -33 -10 -59 -27 -71 -48 -73 -46 -41 42 16 45 30 65 55 79 28 17 46
48 28 48 -14 0 -124 -75 -157 -108 -45 -43 -50 -30 -8 23 17 21 30 41 30 45 0
24 -20 12 -74 -43 -34 -34 -92 -80 -130 -102 -38 -22 -87 -52 -110 -67 -22
-15 -47 -28 -54 -28 -16 0 15 41 132 172 47 53 86 99 86 102 0 3 -9 6 -20 6
-21 0 -88 -67 -146 -145 -16 -23 -129 -95 -147 -95 -4 0 -7 8 -7 18 0 9 -8 26
-17 37 -15 19 -15 19 -9 -10 4 -16 9 -37 12 -47 3 -12 -5 -19 -31 -28 -19 -6
-40 -10 -45 -8 -16 5 34 100 76 144 53 56 114 101 148 110 l28 7 -16 -26 c-17
-25 -43 -42 -59 -38 -13 2 -20 -30 -9 -41 13 -13 87 56 97 90 15 53 -78 33
-162 -35 -28 -23 -54 -39 -57 -36 -3 4 -6 1 -6 -6 0 -21 -38 -64 -78 -88 -48
-29 -130 -73 -136 -73 -3 0 -7 15 -9 33 l-4 32 -1 -36 c-2 -27 -7 -38 -22 -42
-29 -8 -34 9 -13 50 12 26 29 40 53 49 83 28 220 127 220 159 0 16 -37 26 -59
16 -134 -64 -194 -110 -230 -179 l-20 -37 -1 71 c0 68 1 71 38 110 115 119
186 241 205 351 20 115 -23 179 -129 191 -44 5 -44 5 -44 43 0 22 -5 39 -11
39 -8 0 -10 -14 -6 -40 4 -31 2 -40 -9 -40 -12 0 -14 13 -8 78 7 84 14 107 14
49 0 -20 5 -37 10 -37 18 0 11 68 -7 80 -13 8 -14 13 -5 16 6 3 12 14 12 24 0
10 4 21 9 24 5 3 12 -22 16 -57 4 -34 11 -66 15 -72 4 -5 11 -29 15 -53 7 -44
25 -49 25 -6 0 14 -4 22 -10 19 -6 -4 -7 6 -4 25 4 17 2 30 -3 30 -6 0 -14 24
-17 52 -4 29 -11 57 -15 63 -18 22 -26 109 -31 318 0 35 -19 16 -24 -25z m16
-776 c1 -217 1 -223 -21 -248 -12 -14 -24 -24 -26 -22 -1 1 1 30 6 62 4 33 11
145 15 248 4 104 11 187 16 186 5 -2 10 -103 10 -226z m85 215 c2 -2 10 -43
19 -90 9 -48 21 -87 26 -87 11 0 1 78 -12 95 -4 6 -10 27 -14 47 -7 38 -7 38
18 27 26 -12 56 -64 56 -96 -1 -56 -110 -273 -150 -298 -7 -4 -10 66 -10 206
l0 212 32 -7 c17 -3 33 -8 35 -9z m-127 -49 c-4 -29 -11 -145 -15 -258 l-7
-205 -46 -40 c-153 -135 -317 -215 -441 -215 -62 0 -64 10 -12 66 33 35 47 42
89 46 60 6 132 42 227 113 84 63 119 99 113 116 -2 7 -20 -3 -44 -27 -54 -54
-120 -106 -174 -136 -56 -31 -139 -62 -147 -55 -3 4 22 39 56 79 98 115 295
360 314 390 21 34 22 68 2 68 -8 0 -15 -4 -15 -9 0 -12 -91 -133 -263 -351
-72 -91 -132 -167 -134 -169 -2 -3 -11 3 -21 12 -26 27 -23 128 7 197 69 162
247 343 391 398 76 29 82 30 106 31 19 1 20 -3 14 -51z m260 -447 c0 -12 -58
-62 -130 -111 -37 -25 -60 -36 -60 -27 0 16 81 89 137 123 41 25 53 29 53 15z
m-950 -172 c0 -10 18 -37 41 -59 l40 -39 -52 -63 c-28 -35 -56 -64 -60 -66
-24 -10 -23 97 3 207 11 48 28 61 28 20z m916 -51 l-1 -43 43 1 c24 0 47 7 52
14 12 19 27 4 34 -33 3 -18 22 -71 41 -117 19 -46 35 -89 35 -95 1 -5 9 -28
20 -50 11 -22 19 -44 20 -48 0 -5 14 -41 31 -80 16 -40 34 -81 39 -92 65 -153
108 -244 164 -348 20 -37 36 -69 36 -72 0 -8 -168 -5 -270 5 -52 5 -193 12
-312 16 l-218 7 0 31 c0 17 9 153 19 301 11 149 23 335 26 415 l7 146 34 -4
35 -4 -3 -79 c-2 -43 -6 -79 -9 -79 -3 0 -5 -15 -5 -32 0 -18 -3 -87 -7 -153
-5 -76 -4 -115 2 -105 12 20 31 234 31 359 0 56 4 101 9 101 5 0 40 18 78 40
37 22 68 40 69 40 0 0 0 -19 0 -42z"/>
<path d="M1352 1788 c-19 -80 -24 -126 -13 -132 11 -7 16 11 26 89 3 28 8 58
11 68 3 9 1 17 -4 17 -5 0 -14 -19 -20 -42z"/>
<path d="M1326 1534 c-4 -15 -4 -29 -1 -32 8 -8 25 19 25 41 0 26 -17 20 -24
-9z"/>
<path d="M1470 743 c1 -97 -5 -158 -26 -260 -4 -21 -2 -33 4 -33 6 0 13 26 17
58 3 31 10 67 16 80 16 40 22 126 10 167 -7 26 -7 43 -1 49 7 7 10 0 10 -20 0
-19 3 -24 9 -16 5 9 16 2 36 -28 15 -22 32 -40 36 -40 5 0 9 34 9 75 0 49 -4
75 -11 75 -8 0 -10 -16 -6 -50 3 -27 3 -50 -1 -50 -9 0 -57 60 -65 83 -3 9
-13 17 -22 17 -13 0 -15 -16 -15 -107z"/>
<path d="M1650 775 l0 -75 45 0 c25 0 45 5 45 11 0 6 -14 9 -32 7 -30 -3 -33
0 -36 26 -3 26 -1 28 22 22 13 -3 28 -2 31 4 4 6 -6 10 -24 10 -26 0 -31 4
-31 25 0 22 4 25 35 25 19 0 35 5 35 10 0 6 -20 10 -45 10 l-45 0 0 -75z"/>
<path d="M1784 833 c54 -143 58 -149 70 -117 4 9 0 24 -8 33 -8 9 -19 35 -25
59 -8 27 -17 42 -27 42 -11 0 -14 -5 -10 -17z"/>
<path d="M1856 833 c4 -10 7 -34 6 -53 0 -25 1 -29 7 -16 6 15 10 11 21 -23 7
-22 17 -41 22 -41 12 0 10 14 -13 85 -13 42 -26 65 -36 65 -11 0 -13 -5 -7
-17z"/>
<path d="M1937 803 c-11 -29 -14 -50 -8 -56 6 -6 12 4 16 27 4 20 11 39 16 42
11 6 12 34 1 34 -4 0 -15 -21 -25 -47z"/>
<path d="M1514 459 c-3 -5 57 -9 137 -9 78 0 140 2 137 5 -9 9 -268 13 -274 4z"/>
<path d="M1635 2650 l-60 -7 75 -1 c85 -3 86 -3 124 -54 38 -50 85 -63 152
-43 58 17 78 19 69 5 -4 -6 -11 -8 -16 -5 -5 4 -9 2 -9 -4 0 -5 -6 -11 -12
-14 -7 -2 -3 -2 10 0 31 5 28 -4 -9 -23 -17 -8 -41 -13 -53 -10 -15 4 -26 -1
-34 -14 -17 -27 -84 -27 -122 0 -38 27 -76 41 -137 49 -37 5 -54 4 -57 -4 -3
-9 15 -14 57 -17 47 -4 75 -13 116 -39 62 -39 117 -44 150 -15 11 10 25 15 31
11 6 -4 27 3 47 15 58 34 135 60 178 60 22 0 72 -7 110 -15 94 -20 106 -19 67
5 -50 31 -131 59 -138 49 -8 -14 -24 -10 -24 6 0 11 -11 15 -47 13 -44 -1 -45
-2 -10 -5 20 -2 37 -8 37 -14 0 -14 -84 -11 -99 4 -10 10 -11 9 -6 -5 5 -13 0
-16 -32 -15 -21 0 -66 -3 -99 -8 -58 -7 -63 -6 -80 16 -39 48 -86 89 -102 87
-9 -1 -44 -4 -77 -8z"/>
<path d="M1566 2622 c-15 -14 0 -17 74 -14 66 3 81 1 86 -12 7 -17 24 -22 24
-6 0 18 -43 32 -110 35 -38 1 -71 0 -74 -3z"/>
<path d="M1387 2378 c-47 -51 -108 -120 -137 -153 -128 -148 -360 -476 -360
-510 0 -16 23 13 84 104 100 150 337 448 366 459 5 2 10 -5 13 -15 4 -15 5
-15 6 3 0 11 10 29 21 39 11 10 20 24 20 32 0 7 5 13 10 13 11 0 12 -19 4 -72
-5 -30 -11 -38 -28 -39 -18 -1 -18 -2 -3 -6 15 -4 18 -14 16 -51 -4 -109 14
-92 30 28 7 47 16 99 21 115 23 80 37 145 30 145 -5 0 -46 -42 -93 -92z"/>
<path d="M1724 1818 c30 -102 53 -169 68 -198 18 -34 18 -34 12 -5 -4 17 -13
48 -21 70 -8 22 -21 64 -30 93 -9 28 -20 52 -24 52 -5 0 -7 -6 -5 -12z"/>
<path d="M1688 1773 c-3 -13 -3 -25 2 -28 4 -2 13 -32 19 -65 7 -33 17 -60 23
-60 11 0 3 61 -13 89 -5 9 -12 32 -17 51 -7 31 -9 32 -14 13z"/>
<path d="M816 1708 c-8 -12 -13 -25 -10 -30 10 -15 43 -8 54 12 21 40 -18 56
-44 18z"/>
<path d="M2177 1712 c-24 -26 -21 -42 6 -42 28 0 47 17 47 42 0 24 -32 23 -53
0z"/>
<path d="M839 1633 c-14 -17 -39 -67 -39 -80 0 -12 32 22 46 49 19 36 14 56
-7 31z"/>
<path d="M1322 1367 c-24 -56 -7 -426 28 -607 5 -31 10 -67 9 -80 -1 -14 2
-56 6 -95 l7 -70 -22 30 c-19 27 -21 28 -15 6 12 -39 27 -51 44 -34 15 15 15
10 -20 303 -6 47 -14 195 -18 330 -6 205 -9 240 -19 217z"/>
<path d="M625 1215 c-128 -263 -236 -480 -243 -487 -4 -4 -20 -8 -37 -10 -26
-3 -30 0 -30 22 0 19 5 25 22 25 11 0 25 3 29 8 4 4 -7 7 -24 7 -27 0 -32 4
-32 25 0 22 4 25 35 25 19 0 35 5 35 10 0 6 -20 10 -45 10 l-45 0 0 -74 0 -74
45 -4 c53 -4 75 16 101 94 8 26 17 48 20 48 2 0 4 -36 4 -80 0 -56 -4 -82 -12
-84 -53 -16 -54 -17 -29 -29 20 -10 27 -7 47 16 21 25 24 38 24 108 0 67 -2
79 -17 79 -14 0 -14 3 4 23 43 46 229 444 220 470 -2 7 -34 -51 -72 -128z"/>
<path d="M1910 1263 c0 -31 128 -405 129 -378 1 13 -57 205 -68 225 -5 9 -12
30 -15 47 -12 52 -45 130 -46 106z"/>
<path d="M127 843 c-4 -3 -7 -37 -7 -75 0 -55 3 -68 16 -68 11 0 15 8 12 32
-4 42 12 44 37 5 11 -17 29 -33 39 -35 17 -4 16 0 -7 28 -31 36 -33 46 -12 54
18 7 20 37 3 54 -13 13 -70 17 -81 5z m67 -22 c10 -16 -5 -41 -25 -41 -14 0
-19 7 -19 25 0 18 5 25 19 25 11 0 22 -4 25 -9z"/>
<path d="M561 824 c-43 -55 -14 -128 50 -126 39 1 79 39 79 76 0 39 -37 76
-75 76 -24 0 -39 -7 -54 -26z m87 -6 c17 -17 15 -68 -5 -90 -34 -38 -73 -15
-73 42 0 41 14 60 45 60 12 0 26 -5 33 -12z"/>
<path d="M740 776 c0 -54 4 -76 13 -76 9 0 12 20 10 72 -2 100 -23 103 -23 4z"/>
<path d="M842 827 c-42 -45 -22 -122 33 -127 38 -4 65 0 65 10 0 5 -13 7 -29
4 -42 -9 -75 26 -67 69 8 39 22 49 64 44 21 -2 32 1 32 10 0 24 -74 16 -98
-10z"/>
<path d="M990 775 l0 -75 51 0 c34 0 48 4 43 11 -3 6 -19 9 -35 5 -27 -5 -29
-3 -29 25 0 26 3 29 20 24 11 -4 20 -2 20 4 0 6 -9 11 -20 11 -15 0 -20 7 -20
25 0 22 4 25 35 25 19 0 35 5 35 10 0 6 -22 10 -50 10 l-50 0 0 -75z"/>
<path d="M1245 793 c-14 -32 -30 -66 -36 -75 -7 -13 -5 -18 5 -18 7 0 16 9 19
20 4 15 14 20 37 20 23 0 33 -5 37 -20 3 -11 12 -20 19 -20 8 0 14 1 14 3 0 7
-57 138 -63 143 -3 3 -17 -20 -32 -53z m40 -20 c5 -19 2 -23 -14 -23 -23 0
-24 3 -15 38 7 26 18 20 29 -15z"/>
<path d="M2082 842 c36 -88 63 -142 70 -142 11 0 10 33 -1 46 -4 5 -16 30 -26
57 -10 26 -24 47 -32 47 -8 0 -13 -4 -11 -8z"/>
<path d="M2177 803 c-19 -53 -20 -63 -9 -63 4 0 15 22 25 49 19 55 20 61 9 61
-4 0 -16 -21 -25 -47z"/>
<path d="M2261 824 c-51 -65 2 -151 76 -123 36 13 52 37 53 76 0 68 -87 100
-129 47z m87 -6 c31 -31 4 -108 -37 -108 -38 0 -55 56 -31 101 12 21 50 25 68
7z"/>
<path d="M2440 775 c0 -60 3 -75 15 -75 12 0 15 15 15 75 0 60 -3 75 -15 75
-12 0 -15 -15 -15 -75z"/>
<path d="M2544 832 c-49 -39 -37 -115 21 -131 37 -10 88 -3 79 11 -3 5 -19 6
-34 3 -55 -12 -93 61 -53 100 11 11 28 15 50 13 22 -3 33 0 33 9 0 19 -71 16
-96 -5z"/>
<path d="M2690 775 l0 -75 50 0 c31 0 50 4 50 11 0 8 -12 10 -35 6 -33 -5 -35
-4 -35 24 0 25 3 29 19 24 11 -3 22 -1 26 5 4 6 -4 10 -19 10 -21 0 -26 5 -26
25 0 22 4 25 35 25 19 0 35 5 35 10 0 6 -22 10 -50 10 l-50 0 0 -75z"/>
<path d="M2384 526 c22 -18 56 -21 56 -6 0 6 -6 10 -12 10 -7 0 -24 3 -38 6
-24 5 -24 5 -6 -10z"/>
<path d="M2380 486 c14 -9 38 -15 55 -16 43 0 18 17 -35 24 -43 6 -44 6 -20
-8z"/>
<path d="M479 315 c11 -21 91 -103 91 -94 0 4 -23 31 -51 60 -28 30 -46 45
-40 34z"/>
<path d="M2484 296 c-4 -17 -9 -23 -14 -16 -5 8 -9 6 -14 -6 -4 -11 -2 -20 3
-22 6 -2 11 -19 11 -38 0 -25 -4 -34 -16 -34 -11 0 -14 -5 -10 -16 7 -19 -12
-47 -25 -38 -12 7 -11 51 1 59 6 3 8 20 5 38 -8 42 -15 47 -15 10 0 -17 -3
-45 -6 -63 -6 -29 -10 -32 -40 -28 -19 2 -34 0 -34 -4 0 -4 7 -8 16 -8 9 0 30
-6 47 -14 18 -8 39 -17 47 -19 12 -4 11 -6 -2 -6 -30 -2 -20 -16 10 -16 l28 0
15 113 c8 62 11 118 8 124 -5 7 -10 1 -15 -16z"/>
<path d="M1765 263 c-16 -8 -53 -31 -81 -50 -39 -26 -64 -35 -105 -38 -30 -2
-61 -6 -69 -9 -9 -4 -25 2 -38 14 -27 26 -28 13 -1 -19 19 -23 23 -24 52 -12
18 7 41 13 52 13 52 -1 88 12 136 50 64 50 132 63 162 30 17 -19 17 -20 -5
-34 -13 -8 -33 -18 -45 -22 -26 -8 -30 -24 -9 -32 22 -8 83 22 91 45 13 43 58
36 124 -21 26 -23 39 -28 55 -22 36 14 171 10 200 -5 14 -8 29 -11 32 -8 16
16 -60 31 -161 32 -109 1 -110 1 -145 34 -28 25 -42 31 -71 29 -24 -1 -45 5
-64 20 -32 26 -68 27 -110 5z"/>
<path d="M790 247 c3 -3 17 -7 30 -9 14 -2 40 -12 58 -22 41 -21 54 -14 18 9
-23 16 -118 35 -106 22z"/>
<path d="M1055 216 c-22 -8 -56 -22 -75 -32 -19 -10 -55 -19 -80 -20 -48 -3
-100 -19 -100 -30 0 -4 26 -4 58 -2 54 4 162 44 162 60 0 4 18 11 40 14 22 4
40 10 40 15 0 5 -1 9 -2 8 -2 0 -21 -6 -43 -13z"/>
<path d="M1335 199 c-46 -23 -91 -27 -107 -11 -17 17 -33 15 -18 -3 23 -27 74
-29 121 -3 24 12 55 26 69 29 l25 7 -25 0 c-14 1 -43 -8 -65 -19z"/>
</g>
</svg>
