<?xml version="1.0" standalone="no"?>
<!DOCTYPE svg PUBLIC "-//W3C//DTD SVG 20010904//EN"
 "http://www.w3.org/TR/2001/REC-SVG-20010904/DTD/svg10.dtd">
<svg version="1.0" xmlns="http://www.w3.org/2000/svg"
 width="291.000000pt" height="277.000000pt" viewBox="0 0 291.000000 277.000000"
 preserveAspectRatio="xMidYMid meet">
<metadata>
Created by potrace 1.10, written by Peter Selinger 2001-2011
</metadata>
<g transform="translate(0.000000,277.000000) scale(0.050000,-0.050000)"
fill="#ffffff" stroke="none">
<path d="M3012 5348 c-7 -17 -12 -104 -12 -193 l0 -161 -175 -182 c-420 -436
-1092 -1332 -1039 -1385 10 -10 35 22 224 288 108 152 548 605 588 605 10 0
23 15 30 33 14 34 56 -2 127 -109 46 -68 67 -31 106 180 106 574 147 654 130
257 -20 -460 -24 -481 -104 -481 -143 0 -475 -176 -666 -353 -334 -309 -515
-798 -350 -945 l62 -55 -74 -83 c-92 -104 -105 -104 -171 -4 -49 74 -86 340
-47 340 23 0 79 120 79 171 l0 54 -37 -47 c-21 -27 -49 -84 -64 -128 -15 -44
-38 -93 -51 -110 -13 -16 -37 -63 -54 -102 -22 -54 -59 -89 -147 -138 -64 -37
-130 -77 -147 -90 -166 -132 -103 -19 153 273 206 235 207 237 140 237 -72 0
-487 -506 -467 -568 20 -62 89 -38 376 133 66 39 68 35 29 -75 -36 -99 -40
-353 -7 -386 49 -49 72 -34 270 182 l84 91 111 -11 c278 -29 709 151 958 400
54 53 55 46 33 -238 -10 -142 -33 -573 -51 -958 -17 -385 -37 -722 -44 -750
-29 -109 -124 947 -124 1382 -1 388 -7 402 -95 223 l-67 -135 5 -310 c5 -281
10 -317 51 -387 56 -94 126 -296 123 -357 -1 -48 -118 168 -118 219 0 80 -62
-11 -176 -260 -4 -8 6 -15 23 -15 17 0 36 18 43 40 18 56 122 56 140 0 12 -37
34 -49 76 -42 9 1 6 -15 -5 -36 -12 -22 -21 -56 -21 -77 0 -103 -133 -147
-282 -94 -48 17 -114 34 -147 39 -34 5 -110 18 -171 30 -368 71 -492 86 -720
85 -243 -1 -286 -9 -420 -82 -195 -106 -253 -127 -183 -66 24 21 43 53 43 72
0 27 12 32 59 21 105 -23 141 39 141 240 0 123 -7 170 -25 170 -14 0 6 16 45
35 68 34 225 239 207 270 -5 8 -1 15 9 15 31 0 104 192 104 272 0 42 19 142
41 223 74 262 31 202 -219 -306 -404 -821 -367 -756 -439 -771 -60 -12 -63
-10 -63 47 0 44 8 56 29 48 17 -6 35 -3 42 8 6 10 -7 19 -30 19 -30 0 -41 13
-41 50 0 42 9 50 60 50 33 0 60 9 60 20 0 11 -40 20 -90 20 l-90 0 0 -150 0
-150 80 0 c75 0 104 -23 61 -49 -10 -7 -46 -64 -78 -127 -32 -63 -79 -151
-104 -195 l-46 -81 41 -59 c22 -33 83 -124 136 -205 52 -80 153 -207 223 -283
70 -75 127 -142 127 -147 0 -27 -321 -140 -424 -149 -231 -21 -97 -50 172 -38
144 7 739 18 1322 23 583 6 1236 15 1450 21 215 5 591 9 836 9 301 0 442 7
434 21 -8 12 -42 15 -82 7 -39 -7 -79 -3 -94 9 -14 11 -74 24 -135 27 -99 6
-104 9 -59 29 40 18 15 22 -132 17 -114 -4 -245 7 -354 28 -101 20 -176 27
-179 16 -14 -41 -215 -42 -247 -2 -17 21 -25 27 -19 14 14 -27 -4 -32 -199
-65 -66 -12 -142 -16 -170 -9 -27 6 -63 10 -80 8 -127 -12 -323 2 -354 25 -14
11 -39 9 -63 -3 -49 -26 -307 -20 -328 8 -9 13 -15 11 -15 -4 0 -16 -49 -22
-165 -19 -116 3 -194 -6 -265 -31 -120 -43 -156 -44 -260 -7 -44 16 -149 30
-234 30 -84 1 -159 10 -166 21 -8 12 -34 9 -71 -11 -32 -16 -84 -39 -114 -50
l-55 -19 56 50 c31 27 50 50 43 50 -42 0 58 75 165 123 241 110 447 115 575
14 73 -58 63 -78 -34 -66 -88 11 -175 -20 -190 -67 -18 -54 233 -7 395 75 219
110 253 112 414 31 166 -84 162 -84 283 -10 124 76 141 75 230 -13 70 -71 76
-73 148 -51 41 12 116 26 166 30 69 6 121 30 217 101 131 97 244 123 298 69
38 -38 29 -53 -51 -91 -88 -41 -113 -105 -41 -105 52 0 176 69 176 99 0 81
100 65 208 -34 71 -65 175 -88 202 -45 41 66 571 -67 603 -152 7 -17 39 -28
80 -28 43 0 64 8 57 21 -7 11 -2 103 11 205 13 101 25 213 26 249 2 94 25 80
52 -31 17 -71 18 -141 2 -265 -26 -209 -26 -199 6 -199 31 0 47 114 67 474
l12 224 -58 25 c-32 14 -61 27 -65 30 -4 3 8 55 28 117 44 142 28 163 -152
192 -70 11 -131 24 -135 28 -63 62 -211 -151 -237 -340 l-13 -92 -282 10
c-155 6 -444 19 -642 31 -198 11 -449 20 -557 20 l-198 1 14 215 c8 118 26
377 41 575 15 198 34 502 42 675 l13 315 69 0 c56 0 67 -6 58 -35 -6 -19 -21
-201 -33 -405 -28 -480 -27 -469 -66 -477 -29 -5 -33 -35 -30 -231 2 -124 -5
-238 -15 -254 -10 -15 -20 -55 -22 -88 -2 -33 -10 -98 -18 -145 -18 -113 22
-113 42 0 9 47 19 94 22 105 4 11 17 88 29 170 12 83 27 182 32 220 l11 70 63
-75 c86 -102 93 -97 93 75 0 96 -8 150 -22 150 -14 0 -19 -34 -15 -90 9 -108
-4 -112 -73 -21 -43 55 -49 76 -32 108 31 57 69 456 69 713 l-1 220 112 54
c62 30 130 68 152 84 38 29 40 27 40 -54 0 -91 49 -108 192 -66 49 14 52 10
77 -102 14 -64 32 -125 41 -136 8 -11 26 -56 40 -100 14 -44 32 -89 40 -100 8
-11 26 -55 40 -97 13 -42 37 -101 52 -130 15 -29 28 -67 28 -84 0 -16 12 -48
27 -70 15 -21 39 -75 53 -119 14 -44 32 -89 41 -100 8 -11 49 -101 89 -200 41
-99 81 -189 89 -200 35 -46 60 -157 42 -179 -13 -15 -9 -43 11 -82 50 -97 75
-109 61 -29 l-12 70 39 -47 c22 -26 40 -60 40 -75 0 -15 9 -28 20 -28 25 0 27
54 3 68 -15 9 -109 210 -264 562 -80 183 -96 230 -78 230 27 0 13 55 -125 485
-66 206 -128 370 -138 364 -31 -20 -20 -82 52 -292 39 -112 66 -208 60 -213
-10 -11 -70 121 -70 156 0 11 -9 36 -19 55 -11 19 -43 98 -71 175 -28 77 -65
166 -81 198 -17 31 -28 58 -25 60 3 1 33 21 66 43 113 78 119 78 72 3 -111
-181 25 -149 403 93 142 92 146 72 13 -58 -55 -54 -110 -115 -120 -134 -37
-67 57 -39 127 37 36 40 87 96 114 125 58 64 307 264 316 255 4 -4 -12 -54
-35 -113 -47 -118 -41 -159 21 -159 45 0 259 119 259 143 0 37 -38 29 -117
-26 -130 -88 -151 -72 -92 73 27 66 58 123 70 127 62 21 129 100 96 113 -37
14 -100 -21 -237 -131 -132 -106 -146 -110 -90 -27 91 134 28 167 -67 35 -67
-93 -88 -109 -303 -241 -82 -50 -184 -114 -225 -142 -162 -107 -103 -10 179
300 74 80 141 149 150 153 9 3 16 19 16 35 0 46 -93 33 -133 -19 -231 -298
-506 -513 -508 -398 0 19 -15 53 -32 75 -33 41 -31 9 5 -113 8 -29 -75 -77
-135 -77 -33 0 -16 76 35 152 124 187 428 435 428 351 0 -29 -104 -123 -123
-111 -27 16 -45 -52 -20 -77 30 -30 209 149 199 199 -22 119 -367 -48 -502
-243 -36 -52 -115 -108 -285 -203 -111 -62 -109 -62 -109 32 0 72 7 82 70 109
272 113 496 351 331 351 -43 0 -289 -123 -343 -172 -41 -37 -53 -35 -65 7 -8
28 -10 27 -7 -5 1 -22 -31 -89 -72 -150 l-74 -109 0 129 c0 123 4 134 71 200
81 80 284 347 315 415 24 54 51 59 52 10 0 -69 67 -305 86 -305 22 0 1 163
-23 180 -45 31 -61 203 -30 311 71 244 23 400 -146 469 -28 12 -45 36 -45 65
1 36 4 39 20 15 31 -48 25 13 -8 87 -35 77 -117 347 -148 483 -31 136 -28 410
4 410 18 0 22 -34 16 -117 l-8 -117 130 -11 c101 -8 149 -23 218 -71 116 -80
219 -100 288 -55 28 19 79 38 111 42 33 4 91 27 129 50 138 85 255 102 485 67
297 -44 296 -28 -7 103 -94 40 -378 66 -330 29 24 -18 16 -20 -35 -10 -44 9
-65 6 -65 -11 0 -13 -12 -19 -28 -13 -15 6 -62 -1 -105 -17 -153 -54 -205 -41
-318 81 -110 119 -133 126 -329 91 -84 -15 -80 -16 62 -18 159 -3 197 -23 254
-134 24 -46 139 -88 246 -91 l68 -1 -60 -18 c-121 -36 -231 19 -336 170 -33
48 -47 51 -196 51 -112 0 -156 7 -147 22 10 15 0 18 -28 9 -34 -11 -43 -5 -43
26 0 52 -32 72 -48 31z m-186 -773 c-11 -91 -44 -134 -47 -60 -2 30 -4 29 -18
-5 -15 -36 -18 -37 -31 -6 -9 22 6 58 43 104 67 85 66 85 53 -33z m293 -75
c13 -82 31 -158 42 -169 41 -41 22 -111 -31 -111 l-50 0 0 223 c0 257 7 266
39 57z m-88 -275 c-25 -25 -33 15 -17 88 l16 77 6 -77 c4 -42 2 -82 -5 -88z
m15 -502 l9 -427 -49 -53 -49 -53 11 130 c6 72 17 283 23 470 11 311 24 432
40 380 3 -11 10 -212 15 -447z m172 380 c11 -29 31 -109 44 -178 27 -146 67
-172 47 -30 -8 52 -21 104 -29 115 -9 11 -22 51 -30 89 -20 91 60 48 114 -61
34 -69 14 -258 -27 -258 -10 0 -17 -24 -17 -53 0 -45 -204 -387 -231 -387 -5
0 -9 187 -9 417 l0 416 58 -9 c41 -5 65 -24 80 -61z m-265 -68 c-6 -69 -18
-296 -25 -505 l-13 -380 -62 -67 c-254 -269 -925 -569 -1001 -445 -31 49 146
197 248 206 159 16 441 180 612 356 79 82 93 135 25 99 -39 -21 -41 -19 -30
26 7 26 17 115 23 197 l12 148 -52 -129 c-56 -140 -63 -185 -42 -262 23 -82
-255 -302 -479 -379 -153 -53 -154 -47 -6 124 70 80 185 218 256 306 71 88
135 165 141 170 95 86 260 341 260 401 0 74 -52 38 -153 -106 -56 -80 -213
-285 -349 -456 -137 -172 -273 -343 -303 -380 l-54 -69 -43 50 c-186 219 397
1048 810 1151 52 13 57 11 43 -23 -31 -75 -35 -108 -15 -108 26 0 44 49 44
120 0 58 20 69 128 77 34 3 36 -8 25 -122z m495 -902 c-14 -37 -300 -253 -335
-253 -34 0 148 179 247 241 96 61 108 63 88 12z m-1765 -459 l63 -50 -106
-122 c-159 -183 -187 -145 -130 172 l35 194 37 -72 c20 -40 66 -95 101 -122z
m1366 -8 c-76 -54 -83 27 -12 134 l33 50 6 -79 c5 -57 -3 -86 -27 -105z
m-2143 -1308 c-24 -24 -101 0 -114 35 -7 16 -3 24 7 18 9 -6 33 32 52 84 18
52 39 109 46 125 7 17 15 -32 19 -108 3 -76 -1 -145 -10 -154z m1662 159 c-19
-32 -73 -19 -60 15 7 17 12 42 13 55 0 12 13 6 29 -15 16 -21 24 -46 18 -55z
m-1078 -258 c172 -25 572 -141 1187 -345 59 -19 71 -17 95 16 26 35 28 34 28
-19 l0 -56 -185 11 c-102 6 -602 30 -1111 52 -510 23 -936 47 -947 54 -20 12
253 187 293 188 11 0 45 13 76 29 53 28 241 69 404 88 11 1 83 -7 160 -18z
m1182 -168 c6 -27 25 -60 40 -73 36 -29 36 -58 0 -58 -26 0 -92 112 -92 158 0
42 39 22 52 -27z m1994 -86 c-7 -41 -20 -78 -29 -82 -9 -3 -17 -21 -17 -39 0
-25 -5 -27 -24 -8 -17 17 -18 35 -1 69 12 25 28 65 35 90 21 74 48 51 36 -30z
m214 -3 c87 -20 86 -20 -35 -10 -138 11 -176 -22 -50 -43 128 -21 141 -29 167
-95 14 -35 29 -72 34 -82 13 -25 -364 -1 -410 26 -30 17 -31 21 -4 21 46 1
118 70 118 113 1 85 23 126 57 108 18 -9 74 -26 123 -38z m-3280 -157 c0 -8
38 -15 85 -16 170 -2 1095 -41 1685 -71 198 -10 636 -30 974 -44 603 -24 677
-34 615 -81 -33 -24 -60 -77 -72 -141 -7 -33 -3 -34 25 -10 30 25 32 21 18
-42 -8 -39 -23 -73 -32 -77 -10 -3 -18 -23 -18 -43 0 -40 -35 -72 -55 -52 -7
7 -1 45 13 83 16 44 20 102 11 154 l-14 83 -39 -49 c-21 -27 -51 -65 -67 -84
-16 -20 -29 -45 -29 -58 0 -15 -8 -15 -25 -2 -41 32 -269 68 -402 63 -99 -3
-143 6 -227 49 -58 29 -128 53 -156 53 -28 0 -80 12 -116 26 -130 53 -219 43
-387 -44 -182 -93 -339 -111 -474 -55 -95 40 -155 41 -279 4 -86 -27 -107 -26
-220 7 -162 48 -239 50 -357 11 -113 -37 -192 -33 -245 15 -50 45 -188 65
-329 47 -176 -22 -363 -30 -358 -14 3 7 -19 40 -49 72 -30 32 -50 65 -44 74 5
8 -10 11 -34 7 -24 -5 -38 -4 -32 3 16 15 -32 65 -51 54 -8 -5 -15 0 -15 12 0
11 -13 21 -30 21 -16 0 -30 9 -30 21 0 12 41 19 100 16 55 -2 106 2 113 9 19
19 547 18 547 -1z m-813 -127 c32 -44 107 -134 168 -200 61 -65 104 -126 96
-133 -21 -21 -238 221 -340 380 -57 88 9 48 76 -47z m128 -55 c19 -20 74 -78
122 -128 48 -50 82 -101 74 -113 -14 -23 -59 19 -183 170 -64 78 -81 108 -58
108 6 0 26 -17 45 -37z m3030 -476 c41 -6 70 -19 65 -28 -6 -8 -43 -7 -83 4
-40 11 -105 14 -145 7 -65 -12 -68 -10 -34 15 21 16 57 25 80 21 23 -4 76 -12
117 -19z"/>
<path d="M3468 3541 c12 -114 115 -357 128 -298 6 34 -85 321 -120 377 -12 20
-15 -7 -8 -79z"/>
<path d="M4364 3434 c-51 -54 -56 -85 -16 -100 43 -17 115 44 108 91 -9 60
-42 63 -92 9z"/>
<path d="M1633 3423 c-45 -50 -41 -83 10 -83 56 0 118 55 104 92 -16 39 -75
35 -114 -9z"/>
<path d="M240 1550 c0 -120 6 -150 30 -150 21 0 30 22 31 75 0 83 -2 84 102
-59 25 -34 39 -40 57 -24 17 17 10 37 -30 80 -46 50 -49 59 -21 80 78 57 21
148 -93 148 l-76 0 0 -150z m140 60 c0 -37 -11 -50 -40 -50 -29 0 -40 13 -40
50 0 37 11 50 40 50 29 0 40 -13 40 -50z"/>
<path d="M1123 1654 c-43 -46 -58 -160 -28 -206 82 -122 283 -46 284 107 2
134 -163 197 -256 99z m176 -33 c61 -112 -45 -252 -128 -170 -65 66 -24 209
59 209 28 0 58 -17 69 -39z"/>
<path d="M1480 1550 c0 -120 6 -150 30 -150 24 0 30 30 30 150 0 120 -6 150
-30 150 -24 0 -30 -30 -30 -150z"/>
<path d="M1697 1679 c-157 -91 -28 -333 152 -287 71 17 41 44 -59 52 -77 6
-80 9 -86 82 -8 100 25 140 110 130 45 -5 66 0 66 18 0 31 -133 35 -183 5z"/>
<path d="M1980 1550 l0 -150 100 0 c55 0 100 9 100 20 0 11 -31 20 -70 20 -62
0 -70 6 -70 51 0 42 7 49 38 40 21 -7 44 -3 51 8 8 13 -7 21 -38 21 -41 0 -51
10 -51 50 0 44 9 50 70 50 39 0 70 9 70 20 0 11 -45 20 -100 20 l-100 0 0
-150z"/>
<path d="M3297 1695 c-1 -3 -4 -70 -6 -150 l-4 -145 97 0 c53 0 96 9 96 20 0
11 -32 20 -71 20 -63 0 -71 5 -65 45 4 26 19 42 34 39 16 -3 42 0 60 8 24 11
17 17 -28 26 -96 19 -97 102 -1 102 39 0 71 9 71 20 0 17 -174 31 -183 15z"/>
<path d="M3571 1657 c87 -276 121 -312 159 -167 l16 60 30 -76 c37 -94 63 -87
103 31 17 51 38 99 46 107 21 21 19 88 -3 88 -20 0 -81 -142 -84 -195 -1 -19
-18 15 -37 75 -23 71 -48 112 -71 117 -28 5 -32 -1 -21 -30 17 -41 19 -56 14
-124 -5 -74 -50 -39 -73 58 -15 59 -34 91 -58 96 -29 5 -33 -2 -21 -40z"/>
<path d="M4160 1694 c0 -36 124 -284 142 -284 14 0 39 42 56 94 18 51 39 100
47 108 21 20 19 88 -3 88 -18 0 -25 -16 -68 -146 l-26 -77 -46 112 c-35 84
-102 154 -102 105z"/>
<path d="M4520 1646 c-99 -126 2 -295 148 -247 81 27 112 70 112 155 0 145
-170 205 -260 92z m179 -25 c43 -80 1 -201 -71 -201 -42 0 -88 60 -88 115 0
104 116 167 159 86z"/>
<path d="M4880 1550 c0 -120 6 -150 30 -150 24 0 30 30 30 150 0 120 -6 150
-30 150 -24 0 -30 -30 -30 -150z"/>
<path d="M5086 1670 c-145 -102 -17 -324 162 -279 74 19 44 49 -48 49 -92 0
-130 49 -110 141 14 63 76 93 150 73 26 -7 40 0 40 18 0 38 -138 37 -194 -2z"/>
<path d="M5380 1550 l0 -150 100 0 c55 0 100 9 100 20 0 11 -32 20 -71 20 -63
0 -71 6 -65 45 4 29 18 43 39 39 19 -3 40 4 47 15 7 12 -9 21 -39 21 -41 0
-51 10 -51 50 0 44 9 50 70 50 39 0 70 9 70 20 0 11 -45 20 -100 20 l-100 0 0
-150z"/>
<path d="M3071 1012 c22 -54 23 -71 4 -79 -19 -7 -19 -10 -1 -11 41 -3 50 37
23 98 -37 84 -61 75 -26 -8z"/>
<path d="M3140 935 c0 -23 75 -32 360 -41 149 -4 248 -5 220 0 -27 4 -105 21
-173 37 -122 30 -407 32 -407 4z"/>
</g>
</svg>
